<svg width="24" height="23" viewBox="0 0 24 23" fill="none" xmlns="http://www.w3.org/2000/svg">
<path id="icon_home" d="M21.5709 10.263V10.679C21.5709 14.142 21.5589 17.604 21.5829 21.066C21.5769 21.3186 21.4787 21.5603 21.3068 21.7456C21.135 21.9309 20.9014 22.047 20.6499 22.072C20.5389 22.079 20.4269 22.078 20.3149 22.078C14.7403 22.078 9.16559 22.078 3.59092 22.078C3.3901 22.0839 3.18918 22.0705 2.99092 22.038C2.40492 21.922 2.30293 21.788 2.30293 21.199C2.30293 17.6857 2.30293 14.1723 2.30293 10.659V10.234C1.94993 10.49 1.65792 10.702 1.36592 10.912C0.901925 11.245 0.541924 11.212 0.227924 10.812C0.147362 10.723 0.0860951 10.6183 0.0479699 10.5045C0.00984467 10.3906 -0.00431045 10.2701 0.00639731 10.1506C0.0171051 10.031 0.0524431 9.91494 0.110188 9.8097C0.167932 9.70445 0.246828 9.61228 0.341923 9.539C1.35792 8.681 2.37526 7.82467 3.39392 6.97C6.01992 4.762 8.64592 2.55367 11.2719 0.345004C11.3658 0.236202 11.4819 0.148755 11.6124 0.088534C11.7428 0.0283126 11.8847 -0.00328012 12.0284 -0.00413266C12.1721 -0.0049852 12.3143 0.0249211 12.4455 0.0835901C12.5767 0.142259 12.6938 0.228336 12.7889 0.336016C16.4363 3.38002 20.0843 6.42301 23.7329 9.46501C23.8264 9.52451 23.901 9.60949 23.9477 9.70995C23.9945 9.81041 24.0116 9.92217 23.9969 10.032C23.9927 10.103 23.9927 10.1741 23.9969 10.245C23.9899 10.5 24.0689 10.776 23.7549 10.933C23.6036 11.0279 23.4293 11.0796 23.2508 11.0826C23.0723 11.0856 22.8963 11.0397 22.7419 10.95C22.4119 10.75 22.0859 10.544 21.7579 10.342C21.6971 10.3123 21.6347 10.2859 21.5709 10.263ZM4.01093 20.347H19.5589C19.5649 20.238 19.5749 20.147 19.5749 20.06C19.5749 16.2933 19.5749 12.5267 19.5749 8.76001C19.5792 8.67575 19.5621 8.59176 19.5252 8.51587C19.4884 8.43999 19.4329 8.37467 19.3639 8.32601C17.5966 6.86401 15.8326 5.39735 14.0719 3.92601C13.3479 3.32601 12.6223 2.72401 11.8949 2.12001C11.8199 2.17301 11.7599 2.21001 11.7049 2.25501L8.21993 5.112C6.91993 6.18 5.61993 7.256 4.30193 8.306C4.20215 8.37393 4.12194 8.46684 4.06929 8.57546C4.01665 8.68408 3.99342 8.8046 4.00193 8.92501C4.01126 12.5917 4.01326 16.2583 4.00792 19.925L4.01093 20.347Z" fill="black"/>
</svg>
