<svg width="30" height="30" viewBox="0 0 30 30" fill="none" xmlns="http://www.w3.org/2000/svg">
<path d="M5.1951 2.90769C4.92753 2.92011 4.69798 2.96263 4.45864 3.04392C3.92503 3.2253 3.46291 3.5813 3.14718 4.0547C2.97746 4.30947 2.84914 4.60902 2.7814 4.90932C2.7464 5.06587 2.72834 5.20134 2.72081 5.37068C2.7178 5.4324 2.71705 8.29505 2.7178 15.062C2.71931 23.9769 2.71968 24.6701 2.72533 24.7299C2.7607 25.0908 2.84274 25.3825 2.99364 25.6816C3.2883 26.2653 3.78993 26.712 4.40558 26.9389C4.63852 27.0247 4.88877 27.0763 5.14241 27.091C5.19397 27.094 7.93544 27.0947 15.049 27.094C24.3493 27.0928 24.887 27.0925 24.9423 27.0861C25.1252 27.0657 25.2513 27.0428 25.3913 27.0044C25.8237 26.8859 26.2128 26.6597 26.5304 26.3421C26.9786 25.8935 27.2431 25.3031 27.2793 24.6694C27.2823 24.6178 27.283 21.8842 27.2823 14.9528C27.2811 5.86441 27.2804 5.30445 27.2744 5.24763C27.2477 4.99851 27.2036 4.80245 27.1269 4.59284C27.0915 4.49612 27.0606 4.42538 27.0098 4.32377C26.6595 3.62457 26.0099 3.12369 25.2438 2.9615C25.1429 2.94005 25.0511 2.9265 24.9028 2.91183C24.8678 2.90844 22.6698 2.90731 15.0377 2.90694C9.63677 2.90656 5.20751 2.90694 5.1951 2.90769ZM24.82 3.47329C25.2679 3.49926 25.6716 3.6607 26.0148 3.95084C26.0732 3.99976 26.1853 4.11153 26.2346 4.16948C26.4224 4.38925 26.5635 4.65004 26.641 4.92023C26.6805 5.05834 26.7043 5.19381 26.7148 5.34058C26.7201 5.41697 26.7201 24.5869 26.7148 24.6618C26.6922 24.9685 26.6042 25.259 26.4544 25.5217C26.4198 25.5819 26.3441 25.6944 26.3001 25.7513C26.1974 25.8834 26.0668 26.0136 25.9339 26.1163C25.8816 26.1566 25.7672 26.233 25.71 26.2661C25.4474 26.4162 25.158 26.5039 24.8501 26.5265C24.7783 26.5317 5.2237 26.5317 5.15182 26.5265C4.88238 26.5065 4.64605 26.4433 4.40859 26.327C4.2035 26.2266 4.03077 26.1027 3.86858 25.9398C3.71165 25.7825 3.59236 25.6169 3.49377 25.4201C3.36732 25.168 3.29996 24.9079 3.28529 24.6174C3.27889 24.4978 3.28228 5.36692 3.2883 5.30972C3.31803 5.03426 3.37485 4.82691 3.4806 4.60789C3.73386 4.08368 4.20049 3.69457 4.7597 3.54103C4.89216 3.50453 5.06376 3.47743 5.19698 3.47216C5.27864 3.46878 24.7628 3.46991 24.82 3.47329Z" fill="#303841"/>
<path d="M14.7686 4.84566C14.2504 4.86259 13.7842 4.91753 13.3123 5.0165C11.5086 5.39545 9.89117 6.3671 8.70276 7.78544C7.6295 9.0668 6.97621 10.6379 6.82493 12.3016C6.79069 12.6746 6.78203 13.0885 6.8001 13.4475C6.80461 13.5386 6.80649 13.5533 6.8159 13.5849C6.82983 13.6308 6.85165 13.6669 6.88665 13.7015C6.93745 13.7523 6.9875 13.776 7.06088 13.7843C7.08497 13.7873 9.51974 13.7881 15.0264 13.7873C22.6084 13.7862 22.9584 13.7858 22.9817 13.7794C23.0167 13.77 23.0705 13.7425 23.0958 13.7215C23.1552 13.6718 23.1883 13.6071 23.1962 13.525C23.2143 13.3365 23.2151 12.8872 23.1977 12.5857C23.1383 11.54 22.885 10.5314 22.4455 9.58687C21.9679 8.5599 21.271 7.63153 20.413 6.8789C19.2652 5.87225 17.8672 5.20767 16.368 4.95629C16.0014 4.89495 15.6518 4.85996 15.2691 4.84678C15.1739 4.8434 14.854 4.84264 14.7686 4.84566ZM15.2597 5.41126C15.3884 5.41578 15.4787 5.42104 15.6003 5.43045C17.2199 5.55464 18.7527 6.19325 19.9919 7.26048C20.2504 7.48326 20.5263 7.75722 20.7562 8.01951C21.423 8.7808 21.9367 9.67531 22.2554 10.6308C22.4801 11.3051 22.6035 11.9754 22.6397 12.7212C22.6446 12.8164 22.6468 13.2172 22.6427 13.2213C22.6415 13.2225 21.0204 13.2232 19.0406 13.2229L15.4407 13.2217L16.4963 10.9168C17.1891 9.40474 17.5549 8.60205 17.5598 8.58361C17.5695 8.54673 17.5703 8.48652 17.5613 8.45002C17.5353 8.34578 17.4566 8.26713 17.3524 8.24079C17.3054 8.22875 17.2425 8.23176 17.1966 8.24756C17.1785 8.25396 17.1541 8.26487 17.1424 8.27165C17.1146 8.2882 17.0698 8.33035 17.0525 8.35669C17.045 8.36798 16.5396 9.46721 15.9296 10.7994L14.8198 13.2217L11.089 13.2229L7.35817 13.2236L7.35592 13.1363C7.35065 12.9357 7.3642 12.5993 7.38753 12.3449C7.50042 11.1087 7.90722 9.93798 8.58873 8.88655C9.38088 7.66465 10.5332 6.67681 11.8672 6.07621C12.7798 5.66565 13.7559 5.44174 14.7743 5.41013C14.8638 5.40712 15.1724 5.40787 15.2597 5.41126Z" fill="#303841"/>
<path d="M14.933 5.68194C14.8438 5.70452 14.7701 5.76963 14.7381 5.85392C14.7174 5.90849 14.7181 5.88779 14.7181 6.54032C14.7181 7.19173 14.7174 7.17254 14.7377 7.22597C14.7618 7.28882 14.8145 7.34715 14.8739 7.37688C14.93 7.40472 15.0056 7.41338 15.064 7.3987C15.1663 7.37311 15.2401 7.3035 15.2717 7.20264L15.2804 7.17442V6.53844V5.90247L15.2676 5.86596C15.2382 5.78054 15.1739 5.71657 15.0884 5.68759C15.0482 5.67367 14.9755 5.67103 14.933 5.68194Z" fill="#303841"/>
<path d="M10.7589 7.22683C10.6637 7.24602 10.5824 7.31376 10.5493 7.40106C10.5297 7.45299 10.5252 7.50267 10.5346 7.55347C10.5467 7.61481 10.5745 7.66637 10.6193 7.70889C10.6472 7.73523 11.507 8.4683 11.536 8.4905C11.6139 8.55034 11.7328 8.5605 11.8246 8.51571C11.8999 8.47884 11.9541 8.41147 11.9748 8.32793C11.9868 8.28052 11.9838 8.21767 11.968 8.17214C11.9541 8.13262 11.9375 8.10402 11.9123 8.07618C11.8875 8.0487 10.9904 7.28365 10.9614 7.26521C10.9034 7.22796 10.8259 7.21328 10.7589 7.22683Z" fill="#303841"/>
<path d="M19.4631 7.22716C19.4293 7.23394 19.3928 7.24861 19.366 7.26555C19.3363 7.28436 18.4377 8.0513 18.4143 8.07726C18.3891 8.10549 18.3729 8.13409 18.3594 8.17247C18.3496 8.20032 18.3477 8.21274 18.3462 8.25112C18.3443 8.30569 18.3522 8.34294 18.3752 8.38998C18.4429 8.52659 18.6104 8.58266 18.7508 8.51567C18.7635 8.50965 18.782 8.49874 18.791 8.49159C18.8004 8.48444 19.0142 8.30268 19.2663 8.08743C19.5527 7.84282 19.7303 7.68853 19.7393 7.67649C19.7792 7.62418 19.7962 7.57074 19.7958 7.49999C19.7958 7.45747 19.7943 7.44957 19.7834 7.4172C19.7559 7.33592 19.6938 7.27006 19.6182 7.24146C19.5666 7.22227 19.5128 7.217 19.4631 7.22716Z" fill="#303841"/>
<path d="M8.48225 10.3263C8.38064 10.3537 8.30689 10.426 8.27942 10.5253C8.26361 10.5829 8.26549 10.6371 8.28619 10.6954C8.31253 10.7692 8.37048 10.8305 8.44161 10.8595C8.45478 10.8648 8.72874 10.9325 9.05049 11.01C9.59389 11.141 9.63867 11.1515 9.67706 11.153C9.81629 11.1591 9.93258 11.0684 9.96343 10.9295C9.97209 10.8896 9.96908 10.8283 9.95628 10.7884C9.9322 10.7135 9.88328 10.6567 9.81253 10.6213C9.78054 10.6055 9.74818 10.5972 9.19161 10.4632C8.60606 10.3221 8.60455 10.3218 8.55751 10.3202C8.51913 10.3191 8.50521 10.3202 8.48225 10.3263Z" fill="#303841"/>
<path d="M21.4538 10.3225C21.4467 10.3243 21.19 10.3861 20.8837 10.4598C20.5774 10.5332 20.314 10.5972 20.2985 10.6013C20.2173 10.6235 20.1563 10.6739 20.1198 10.7496C20.0987 10.7936 20.0912 10.8248 20.0912 10.8711C20.0912 10.9535 20.1213 11.0235 20.1808 11.0788C20.2131 11.109 20.2398 11.1251 20.2824 11.1402C20.3136 11.1515 20.3185 11.1519 20.37 11.1519H20.4246L21.0098 11.0104C21.3315 10.9325 21.6055 10.8647 21.6183 10.8595C21.7007 10.826 21.7662 10.7458 21.7854 10.6555C21.788 10.6431 21.7899 10.6167 21.7899 10.5972C21.7895 10.47 21.7011 10.3575 21.5765 10.3262C21.5449 10.3183 21.4798 10.3164 21.4538 10.3225Z" fill="#303841"/>
<path d="M15.2152 14.722C15.155 14.7325 15.099 14.7619 15.0572 14.8044C15.0184 14.8435 14.994 14.8891 14.9827 14.9436C14.9782 14.9662 14.9774 15.6044 14.9782 19.6991L14.9793 24.4287L14.9898 24.4588C15.0056 24.5036 15.0271 24.5378 15.0617 24.5717C15.0975 24.6067 15.123 24.6229 15.1682 24.6387C15.2137 24.6545 15.2766 24.6575 15.324 24.6455C15.426 24.6202 15.4994 24.5491 15.5313 24.4456L15.54 24.4174L15.5411 19.7078C15.5419 16.3627 15.5411 14.9892 15.5381 14.967C15.5227 14.8492 15.4399 14.7558 15.3263 14.7276C15.2946 14.7197 15.2423 14.7171 15.2152 14.722Z" fill="#303841"/>
</svg>
