<svg width="13" height="12" viewBox="0 0 13 12" fill="none" xmlns="http://www.w3.org/2000/svg">
<path id="heart-icon" d="M11.364 1.86401C11.0702 1.54385 10.7126 1.28882 10.3142 1.11537C9.91583 0.941923 9.4855 0.853911 9.051 0.857013C8.39177 0.854017 7.75109 1.0751 7.234 1.48401C6.95389 1.70324 6.70671 1.96154 6.5 2.25101C6.29331 1.96153 6.04612 1.70322 5.766 1.48401C5.24891 1.0751 4.60823 0.854017 3.949 0.857013C3.51466 0.854052 3.08453 0.942131 2.68632 1.11557C2.2881 1.28902 1.93065 1.54397 1.637 1.86401C1.03176 2.54171 0.703997 3.42252 0.718999 4.33101C0.745379 5.37839 1.15325 6.38011 1.866 7.14801C2.74871 8.12168 3.70849 9.0226 4.736 9.84201C5.136 10.181 5.585 10.565 6.053 10.974C6.17676 11.0822 6.33559 11.1419 6.5 11.1419C6.66441 11.1419 6.82324 11.0822 6.947 10.974C7.415 10.565 7.866 10.18 8.264 9.84101C9.29155 9.02165 10.2513 8.12072 11.134 7.14701C11.8468 6.37911 12.2546 5.37739 12.281 4.33001C12.2966 3.42129 11.9692 2.54006 11.364 1.86201V1.86401Z" fill="#FF6079"/>
</svg>
