<svg width="21" height="18" viewBox="0 0 21 18" fill="none" xmlns="http://www.w3.org/2000/svg">
<g id="ico">
<g id="Rectangle 236">
<path id="Vector" d="M5.93791 12.1197L9.37232 15.5541C9.95811 16.1399 10.9079 16.1399 11.4936 15.5541L19.1035 7.9442C19.6893 7.35842 19.6893 6.40867 19.1035 5.82288L15.6691 2.38847C15.0833 1.80268 14.1336 1.80268 13.5478 2.38846L5.93791 9.99835C5.35212 10.5841 5.35212 11.5339 5.93791 12.1197Z" stroke="black"/>
</g>
<g id="Rectangle 235">
<path id="Vector_2" d="M5.20223 2.38871L1.76781 5.82313C1.18203 6.40892 1.18203 7.35866 1.76781 7.94445L9.3777 15.5543C9.96348 16.1401 10.9132 16.1401 11.499 15.5543L14.9334 12.1199C15.5192 11.5341 15.5192 10.5844 14.9334 9.99859L7.32355 2.38871C6.73777 1.80292 5.78802 1.80292 5.20223 2.38871Z" stroke="black"/>
</g>
</g>
</svg>
