<svg width="10" height="11" viewBox="0 0 10 11" fill="none" xmlns="http://www.w3.org/2000/svg">
<g id="calories">
<path id="Path 3592" d="M4.38091 1.17399C4.81108 1.59283 5.14613 2.09929 5.36336 2.65901C5.58059 3.21873 5.67491 3.81862 5.63991 4.418C5.6377 4.6016 5.70134 4.77991 5.81931 4.92062C5.93727 5.06133 6.10173 5.15512 6.2829 5.18499C6.32286 5.19635 6.36441 5.20108 6.4059 5.19899C6.60731 5.20033 6.80105 5.12187 6.94478 4.98077C7.08851 4.83966 7.17052 4.6474 7.1729 4.446V4.33599C7.1729 4.28099 7.1729 4.15799 7.1869 4.02099C7.18645 3.99381 7.19409 3.96711 7.20886 3.94428C7.22363 3.92146 7.24487 3.90354 7.26985 3.89282C7.29484 3.8821 7.32245 3.87905 7.34917 3.88407C7.37589 3.88908 7.40051 3.90194 7.41991 3.92099C8.14498 4.69892 8.55486 5.71867 8.5699 6.78199C8.55435 7.25502 8.44464 7.72019 8.24718 8.15031C8.04972 8.58043 7.76848 8.96686 7.41991 9.28699C6.71443 9.98238 5.76835 10.3795 4.77791 10.396C3.78881 10.3732 2.84495 9.97698 2.13589 9.28699C1.78732 8.96686 1.50608 8.58043 1.30862 8.15031C1.11116 7.72019 1.00145 7.25502 0.985901 6.78199C1.09051 5.53418 1.66831 4.3736 2.60091 3.53799C3.2864 2.88387 3.77192 2.04843 4.0009 1.12899C4.00355 1.1049 4.01283 1.08202 4.02771 1.06289C4.04259 1.04376 4.06248 1.02913 4.08517 1.02063C4.10787 1.01214 4.13248 1.0101 4.15627 1.01476C4.18005 1.01941 4.20207 1.03057 4.21989 1.04699L4.38091 1.17399ZM3.5459 0.0249937C3.49977 0.0237914 3.45412 0.0344742 3.41331 0.0560148C3.37251 0.0775555 3.33792 0.109231 3.3129 0.147995C3.2579 0.247995 3.3399 0.447992 3.4359 0.708992C3.6279 1.29799 3.0359 2.24199 2.2039 3.18699C1.17873 4.12291 0.551652 5.41645 0.451904 6.80099C0.496926 7.92174 0.97381 8.98161 1.7827 9.75866C2.59159 10.5357 3.66974 10.9697 4.7914 10.9697C5.91305 10.9697 6.99122 10.5357 7.80011 9.75866C8.609 8.98161 9.08588 7.92174 9.13091 6.80099C9.12133 6.09916 8.95974 5.40774 8.65729 4.77435C8.35483 4.14095 7.9187 3.58064 7.37891 3.13199L7.2419 3.022C7.18107 2.96932 7.10337 2.94022 7.0229 2.93999C6.95972 2.9397 6.89779 2.95766 6.84457 2.99173C6.79135 3.02579 6.7491 3.07449 6.7229 3.13199C6.67284 3.53614 6.64546 3.94278 6.6409 4.34999V4.44999C6.6413 4.47886 6.63592 4.50753 6.62506 4.53428C6.6142 4.56103 6.59807 4.58533 6.57765 4.60575C6.55723 4.62617 6.53293 4.64228 6.50618 4.65314C6.47943 4.66401 6.45078 4.6694 6.42191 4.66899H6.38091C6.32663 4.6589 6.27765 4.63001 6.24254 4.58741C6.20743 4.5448 6.18844 4.4912 6.1889 4.43599C6.22714 3.75917 6.11851 3.0821 5.87047 2.45121C5.62243 1.82032 5.24085 1.25055 4.75191 0.780994C4.43428 0.417891 4.01701 0.156055 3.5519 0.0279921L3.5459 0.0249937Z" fill="#00ADB5"/>
</g>
</svg>
