<svg width="12" height="12" viewBox="0 0 12 12" fill="none" xmlns="http://www.w3.org/2000/svg">
<g id="clock">
<g id="Group 56254">
<path id="Path 863" d="M6.021 11.043C4.92909 11.043 3.86171 10.7192 2.9538 10.1126C2.0459 9.50598 1.33826 8.64378 0.920359 7.635C0.502458 6.62623 0.393066 5.51619 0.606014 4.44525C0.818962 3.37431 1.34469 2.39056 2.11671 1.6184C2.88874 0.846231 3.87239 0.320327 4.9433 0.107185C6.0142 -0.105956 7.12426 0.0032351 8.1331 0.420953C9.14195 0.838671 10.0043 1.54616 10.6111 2.45395C11.2178 3.36174 11.5418 4.42907 11.542 5.52098C11.5407 6.98493 10.9586 8.38855 9.92354 9.42381C8.88846 10.4591 7.48495 11.0414 6.021 11.043ZM6.021 0.630979C5.05385 0.630979 4.10842 0.917773 3.30426 1.45509C2.50011 1.99241 1.87334 2.75613 1.50323 3.64966C1.13312 4.54319 1.03628 5.5264 1.22496 6.47497C1.41364 7.42354 1.87937 8.29485 2.56325 8.97873C3.24713 9.66261 4.11844 10.1283 5.06701 10.317C6.01558 10.5057 6.99879 10.4089 7.89232 10.0387C8.78586 9.66864 9.54957 9.04187 10.0869 8.23772C10.6242 7.43356 10.911 6.48813 10.911 5.52098C10.9084 4.22488 10.3923 2.98263 9.47584 2.06615C8.55935 1.14966 7.3171 0.633621 6.021 0.630979Z" fill="#00ADB5"/>
</g>
<g id="Group 56255">
<path id="Path 864" d="M7.71505 7.52986C7.67365 7.52998 7.63264 7.52191 7.59437 7.50612C7.5561 7.49034 7.52132 7.46713 7.49205 7.43786L5.79806 5.74486C5.76882 5.71555 5.74565 5.68078 5.72986 5.64251C5.71408 5.60425 5.70599 5.56325 5.70606 5.52186V1.93886C5.71059 1.85825 5.74581 1.78244 5.80448 1.72698C5.86315 1.67152 5.94082 1.64063 6.02156 1.64063C6.10229 1.64062 6.17996 1.67152 6.23863 1.72698C6.2973 1.78244 6.33251 1.85825 6.33705 1.93886V5.39086L7.93705 6.99086C7.98107 7.03505 8.01102 7.09127 8.02314 7.15245C8.03526 7.21363 8.02901 7.27703 8.00516 7.33466C7.98132 7.3923 7.94095 7.44158 7.88915 7.47632C7.83735 7.51105 7.77642 7.52968 7.71405 7.52986H7.71505Z" fill="#00ADB5"/>
</g>
</g>
</svg>
