<svg width="19" height="17" viewBox="0 0 19 17" fill="none" xmlns="http://www.w3.org/2000/svg">
<g id="plans-icon">
<path id="Path 858" d="M10.429 16.586C10.377 16.586 10.329 16.586 10.278 16.579C9.26404 16.489 7.86103 15.1 6.10703 12.444C5.2136 11.115 4.71026 9.56235 4.65403 7.96197C4.64175 7.61046 4.65915 7.25854 4.70603 6.90996C4.32525 6.56673 4.02966 6.13952 3.84272 5.66218C3.65578 5.18484 3.58262 4.6705 3.62904 4.15996C3.86504 3.15096 5.21704 2.68796 6.31104 2.47796C6.61594 2.4207 6.93118 2.48196 7.19247 2.64921C7.45375 2.81646 7.64137 3.07711 7.71703 3.37797C7.85643 4.25677 7.77182 5.15655 7.47103 5.99396C7.45641 6.59346 7.5541 7.19039 7.75904 7.75396C9.03615 8.34417 10.1625 9.21679 11.053 10.306C11.459 8.92096 12.724 5.74797 15.743 6.27897C16.3161 6.34271 16.8586 6.57025 17.3057 6.93435C17.7528 7.29845 18.0856 7.78368 18.264 8.33196C18.4651 8.97602 18.5064 9.65932 18.3844 10.3229C18.2625 10.9865 17.9809 11.6105 17.564 12.141C16.52 13.241 12.479 16.583 10.428 16.583L10.429 16.586ZM6.53504 2.99697C6.49311 2.99735 6.45128 3.00136 6.41004 3.00896C5.79304 3.12696 4.33804 3.48896 4.15304 4.28496C3.88604 5.42396 5.16203 6.60496 5.17403 6.61696C5.20763 6.6476 5.23302 6.68616 5.24787 6.72913C5.26272 6.77211 5.26656 6.81813 5.25904 6.86297C5.20281 7.22308 5.18071 7.58769 5.19303 7.95196C5.24558 9.45188 5.7178 10.907 6.55604 12.152C8.14404 14.557 9.51903 15.975 10.325 16.046C12.025 16.19 16.079 12.934 17.17 11.781C17.5154 11.3191 17.7475 10.7826 17.8477 10.2146C17.9479 9.64669 17.9134 9.06315 17.747 8.51096C17.5949 8.05825 17.3163 7.65859 16.9441 7.35927C16.5719 7.05995 16.1218 6.8735 15.647 6.82197C12.347 6.24097 11.436 10.988 11.427 11.035C11.4163 11.089 11.3892 11.1385 11.3495 11.1768C11.3098 11.215 11.2593 11.2402 11.2049 11.2489C11.1504 11.2576 11.0946 11.2495 11.0449 11.2255C10.9953 11.2016 10.9541 11.163 10.927 11.115C10.0546 9.84585 8.84857 8.84229 7.44204 8.21496C7.37847 8.18624 7.32786 8.13492 7.30004 8.07096C7.03531 7.4006 6.90976 6.68338 6.93104 5.96296C6.93135 5.93718 6.93538 5.91159 6.94303 5.88697C7.2265 5.12932 7.31186 4.31184 7.19103 3.51197C7.15537 3.36666 7.07188 3.23756 6.95399 3.14542C6.8361 3.05329 6.69066 3.00346 6.54104 3.00396L6.53504 2.99697Z" fill="black"/>
<path id="Path 859" d="M2.99999 6.77009C2.94383 6.77004 2.8891 6.75248 2.8434 6.71986C2.79769 6.68724 2.7633 6.64118 2.745 6.5881L2.29399 5.2951C2.28228 5.26174 2.27726 5.22641 2.27922 5.19111C2.28118 5.15582 2.29008 5.12125 2.30541 5.0894C2.32073 5.05754 2.34218 5.02902 2.36853 5.00546C2.39489 4.9819 2.42562 4.96377 2.45899 4.9521L3.75899 4.49409C3.79292 4.48133 3.82904 4.47544 3.86527 4.47674C3.90149 4.47804 3.93709 4.48653 3.97002 4.50169C4.00294 4.51685 4.03254 4.53838 4.05708 4.56506C4.08162 4.59173 4.10063 4.62302 4.11299 4.6571C4.12482 4.69135 4.12965 4.72762 4.12721 4.76377C4.12478 4.79992 4.11512 4.83521 4.0988 4.86756C4.08249 4.89991 4.05985 4.92866 4.03223 4.95211C4.00461 4.97556 3.97256 4.99325 3.93799 5.0041L2.88599 5.3731L3.15999 6.15809L4.245 5.77509C4.31103 5.75731 4.38134 5.76514 4.44183 5.79702C4.50233 5.82891 4.54855 5.88249 4.5712 5.94702C4.59385 6.01154 4.59125 6.08225 4.56395 6.14495C4.53665 6.20765 4.48666 6.25771 4.424 6.28509L3.08399 6.7581C3.0546 6.7658 3.02437 6.76982 2.99399 6.77009H2.99999Z" fill="black"/>
<path id="Path 860" d="M7.43995 5.22501C7.37603 5.22531 7.31408 5.20292 7.26511 5.16183C7.21615 5.12075 7.18339 5.06362 7.17259 5.00062C7.16179 4.93763 7.17367 4.87284 7.20615 4.81779C7.23864 4.76275 7.28959 4.721 7.34995 4.7L8.94996 4.14L8.67594 3.35501L7.55296 3.74701C7.51924 3.75963 7.48334 3.76539 7.44737 3.76393C7.41139 3.76247 7.37604 3.75384 7.34345 3.73852C7.31086 3.72321 7.28166 3.70152 7.25758 3.67476C7.23349 3.64799 7.215 3.61669 7.20319 3.58267C7.19139 3.54865 7.18652 3.51262 7.18885 3.47668C7.19118 3.44075 7.20068 3.40565 7.21677 3.37344C7.23287 3.34123 7.25523 3.31257 7.28257 3.28914C7.30991 3.26571 7.34166 3.24798 7.37595 3.237L8.75395 2.755C8.82158 2.7313 8.89586 2.73534 8.96052 2.76627C9.02518 2.79719 9.07495 2.85246 9.09895 2.92L9.54997 4.215C9.56167 4.24835 9.56669 4.28369 9.56474 4.31898C9.56278 4.35428 9.55388 4.38884 9.53855 4.4207C9.52323 4.45255 9.50177 4.48108 9.47541 4.50464C9.44906 4.5282 9.41832 4.54633 9.38496 4.558L7.53495 5.205C7.50683 5.21824 7.47602 5.22474 7.44495 5.224L7.43995 5.22501Z" fill="black"/>
<path id="Path 862" d="M2.17298 8.69799C2.03568 8.69821 1.90174 8.65554 1.78986 8.57594C1.67799 8.49634 1.59377 8.38378 1.54897 8.25399L0.324973 4.73298C0.267745 4.5676 0.278326 4.38629 0.354408 4.22869C0.430489 4.0711 0.565887 3.95003 0.730979 3.89198L1.57897 3.59199C1.74408 3.53483 1.92511 3.54545 2.08239 3.62156C2.23966 3.69767 2.36035 3.83304 2.41798 3.99798L3.64197 7.51899C3.6992 7.68437 3.68862 7.86568 3.61254 8.02328C3.53646 8.18088 3.40106 8.30193 3.23597 8.35998L2.38998 8.65998C2.32014 8.68417 2.24688 8.69701 2.17298 8.69799ZM1.79497 4.09799C1.78134 4.09801 1.76782 4.10038 1.75498 4.10499L0.906974 4.40498C0.891782 4.40988 0.87776 4.41786 0.86576 4.42839C0.85376 4.43892 0.844034 4.45179 0.837196 4.46621C0.830357 4.48064 0.82655 4.49631 0.825996 4.51226C0.825442 4.52822 0.828155 4.54412 0.833976 4.55899L2.05697 8.08099C2.06187 8.09618 2.06985 8.1102 2.08038 8.1222C2.0909 8.1342 2.10378 8.14393 2.1182 8.15077C2.13263 8.15761 2.1483 8.16141 2.16425 8.16197C2.18021 8.16252 2.19611 8.15981 2.21098 8.15399L3.05897 7.85398C3.07416 7.84908 3.0882 7.84112 3.1002 7.83059C3.1122 7.82006 3.12191 7.80719 3.12875 7.79277C3.13558 7.77834 3.13941 7.76265 3.13996 7.7467C3.14052 7.73074 3.1378 7.71486 3.13198 7.69999L1.90798 4.17898C1.89955 4.15579 1.88418 4.13577 1.86396 4.12164C1.84374 4.1075 1.81965 4.09994 1.79497 4.09999V4.09799Z" fill="black"/>
</g>
</svg>
