<svg width="19" height="19" viewBox="0 0 19 19" fill="none" xmlns="http://www.w3.org/2000/svg">
<g id="settings">
<path id="Ellipse 10" d="M9.25 11.0601C10.2165 11.0601 11 10.2766 11 9.31006C11 8.34356 10.2165 7.56006 9.25 7.56006C8.2835 7.56006 7.5 8.34356 7.5 9.31006C7.5 10.2766 8.2835 11.0601 9.25 11.0601Z" stroke="black" stroke-linecap="round" stroke-linejoin="round"/>
<path id="Path 15" d="M14.967 11.627C14.8642 11.8601 14.8336 12.1185 14.879 12.3691C14.9245 12.6197 15.0439 12.851 15.222 13.033L15.268 13.079C15.4116 13.2226 15.5255 13.3931 15.6032 13.5807C15.6809 13.7684 15.7209 13.9695 15.7209 14.1725C15.7209 14.3756 15.6809 14.5767 15.6032 14.7643C15.5255 14.952 15.4116 15.1224 15.268 15.266C15.1244 15.4096 14.9539 15.5236 14.7663 15.6013C14.5787 15.679 14.3776 15.719 14.1745 15.719C13.9714 15.719 13.7703 15.679 13.5827 15.6013C13.3951 15.5236 13.2246 15.4096 13.081 15.266L13.035 15.22C12.8544 15.0451 12.6264 14.927 12.3793 14.8803C12.1322 14.8337 11.8768 14.8606 11.6448 14.9577C11.4128 15.0548 11.2145 15.2178 11.0742 15.4265C10.934 15.6353 10.8581 15.8806 10.856 16.132V16.263C10.856 16.6729 10.6932 17.066 10.4033 17.3559C10.1135 17.6457 9.72038 17.8085 9.31049 17.8085C8.9006 17.8085 8.50749 17.6457 8.21766 17.3559C7.92782 17.066 7.76499 16.6729 7.76499 16.263V16.193C7.75896 15.9376 7.67633 15.6899 7.52779 15.4819C7.37926 15.274 7.17169 15.1156 6.93199 15.027C6.69897 14.9243 6.4405 14.8936 6.18991 14.9391C5.93931 14.9845 5.70807 15.104 5.52599 15.282L5.47999 15.328C5.33639 15.4716 5.16591 15.5856 4.97829 15.6633C4.79066 15.741 4.58957 15.781 4.38649 15.781C4.18341 15.781 3.98231 15.741 3.79469 15.6633C3.60707 15.5856 3.43659 15.4716 3.29299 15.328C3.14939 15.1844 3.03548 15.014 2.95776 14.8263C2.88005 14.6387 2.84005 14.4376 2.84005 14.2345C2.84005 14.0315 2.88005 13.8304 2.95776 13.6427C3.03548 13.4551 3.14939 13.2846 3.29299 13.141L3.33899 13.095C3.51395 12.9144 3.63207 12.6864 3.67871 12.4393C3.72535 12.1922 3.69845 11.9368 3.60137 11.7049C3.50428 11.4729 3.34125 11.2745 3.1325 11.1343C2.92375 10.9941 2.67845 10.9182 2.42699 10.916H2.29599C1.8861 10.916 1.49299 10.7532 1.20315 10.4634C0.913317 10.1735 0.750488 9.78044 0.750488 9.37055C0.750488 8.96066 0.913317 8.56755 1.20315 8.27771C1.49299 7.98788 1.8861 7.82505 2.29599 7.82505H2.36699C2.62284 7.81907 2.87097 7.73623 3.07911 7.5873C3.28724 7.43838 3.44574 7.23027 3.53399 6.99005C3.63608 6.75708 3.66616 6.49891 3.62036 6.24871C3.57457 5.99852 3.45498 5.76774 3.27699 5.58605L3.23099 5.54005C2.94097 5.25003 2.77805 4.85669 2.77805 4.44655C2.77805 4.0364 2.94097 3.64306 3.23099 3.35305C3.521 3.06303 3.91435 2.9001 4.32449 2.9001C4.73463 2.9001 5.12797 3.06303 5.41799 3.35305L5.46399 3.39905C5.64582 3.5765 5.87653 3.69559 6.12651 3.74102C6.37649 3.78646 6.63434 3.75617 6.86699 3.65405H6.92899C7.15818 3.55658 7.3538 3.39412 7.49171 3.18673C7.62961 2.97934 7.70376 2.7361 7.70499 2.48705V2.35605C7.70499 1.94615 7.86782 1.55305 8.15765 1.26321C8.44749 0.973376 8.8406 0.810547 9.25049 0.810547C9.66038 0.810547 10.0535 0.973376 10.3433 1.26321C10.6332 1.55305 10.796 1.94615 10.796 2.35605V2.42705C10.7981 2.67851 10.874 2.92381 11.0142 3.13256C11.1545 3.34131 11.3528 3.50433 11.5848 3.60142C11.8168 3.69851 12.0722 3.72541 12.3193 3.67877C12.5664 3.63213 12.7944 3.51401 12.975 3.33905L13.021 3.29305C13.311 3.00303 13.7043 2.8401 14.1145 2.8401C14.5246 2.8401 14.918 3.00303 15.208 3.29305C15.498 3.58306 15.6609 3.97641 15.6609 4.38655C15.6609 4.79669 15.498 5.19003 15.208 5.48005L15.162 5.52605C14.9849 5.70771 14.8661 5.93806 14.8207 6.18763C14.7752 6.4372 14.8053 6.69465 14.907 6.92705V6.98905C15.0049 7.21768 15.1676 7.41267 15.3749 7.55002C15.5823 7.68737 15.8253 7.76107 16.074 7.76205H16.205C16.6149 7.76205 17.008 7.92488 17.2978 8.21471C17.5877 8.50455 17.7505 8.89765 17.7505 9.30755C17.7505 9.71744 17.5877 10.1105 17.2978 10.4004C17.008 10.6902 16.6149 10.853 16.205 10.853H16.135C15.886 10.8539 15.6427 10.9277 15.4351 11.0652C15.2276 11.2028 15.0648 11.3981 14.967 11.627V11.627Z" stroke="black" stroke-linecap="round" stroke-linejoin="round"/>
</g>
</svg>
