<svg width="18" height="18" viewBox="0 0 18 18" fill="none" xmlns="http://www.w3.org/2000/svg">
<g id="support-icon">
<path id="phone-call" d="M10.562 3.77396C11.3103 3.9199 11.998 4.28583 12.537 4.82491C13.0761 5.36399 13.4421 6.05169 13.588 6.79996L10.562 3.77396ZM10.562 0.709961C12.1165 0.88258 13.566 1.57864 14.6727 2.68385C15.7794 3.78905 16.4773 5.23772 16.652 6.79196L10.562 0.709961ZM15.886 12.905V15.205C15.8869 15.4183 15.8432 15.6295 15.7577 15.825C15.6722 16.0204 15.5469 16.1959 15.3896 16.3401C15.2324 16.4843 15.0468 16.5941 14.8447 16.6625C14.6426 16.7308 14.4285 16.7562 14.216 16.737C11.8591 16.4806 9.59509 15.6751 7.60599 14.385C5.75333 13.2082 4.18275 11.6376 3.00599 9.78496C1.71289 7.78666 0.908515 5.51194 0.657994 3.14496C0.638984 2.93323 0.664245 2.71987 0.73217 2.51844C0.800096 2.317 0.909199 2.13191 1.05254 1.97493C1.19588 1.81795 1.37032 1.69252 1.56477 1.60662C1.75922 1.52072 1.96942 1.47622 2.18199 1.47596H4.48199C4.85332 1.47277 5.21316 1.60456 5.4946 1.84682C5.77603 2.08907 5.95989 2.4253 6.01199 2.79296C6.10895 3.52821 6.28876 4.25013 6.54799 4.94496C6.65013 5.21859 6.67192 5.51572 6.6108 5.80132C6.54967 6.08692 6.40818 6.3491 6.20299 6.55696L5.22899 7.53496C6.31996 9.45467 7.90929 11.044 9.82899 12.135L10.802 11.162C11.0102 10.956 11.2731 10.8141 11.5595 10.7529C11.8459 10.6918 12.1438 10.714 12.418 10.817C13.1128 11.0762 13.8347 11.256 14.57 11.353C14.942 11.4056 15.2817 11.593 15.5245 11.8797C15.7673 12.1664 15.8963 12.5324 15.887 12.908L15.886 12.905Z" stroke="black" stroke-linecap="round" stroke-linejoin="round"/>
</g>
</svg>
