<svg width="15" height="15" viewBox="0 0 15 15" fill="none" xmlns="http://www.w3.org/2000/svg">
<g id="close-btn">
<path id="close-btn_2" d="M9.05095 7.80393L14.3509 2.50393C14.4327 2.42179 14.4975 2.32435 14.5416 2.21718C14.5856 2.11001 14.6082 1.9952 14.6079 1.87931C14.6076 1.76343 14.5845 1.64873 14.5399 1.54177C14.4953 1.43481 14.4301 1.33768 14.3479 1.25593C14.2658 1.17419 14.1684 1.10942 14.0612 1.06533C13.954 1.02124 13.8392 0.998686 13.7233 0.998965C13.6074 0.999244 13.4927 1.02235 13.3858 1.06695C13.2788 1.11156 13.1817 1.17679 13.0999 1.25893L7.79995 6.55893L2.49995 1.25893C2.42074 1.1666 2.3233 1.09165 2.21373 1.03879C2.10417 0.985929 1.98486 0.956307 1.86329 0.951782C1.74173 0.947258 1.62054 0.967929 1.50735 1.0125C1.39416 1.05707 1.29141 1.12457 1.20557 1.21076C1.11972 1.29695 1.05263 1.39997 1.00852 1.51334C0.964407 1.62671 0.944222 1.74797 0.949236 1.86952C0.954249 1.99107 0.984351 2.11026 1.03765 2.21961C1.09095 2.32896 1.16629 2.42611 1.25895 2.50493L6.55895 7.80493L1.25895 13.1049C1.17392 13.1861 1.10597 13.2834 1.0591 13.3912C1.01223 13.4991 0.987387 13.6151 0.986022 13.7327C0.984657 13.8502 1.0068 13.9668 1.05115 14.0757C1.09551 14.1846 1.16117 14.2835 1.24429 14.3666C1.32741 14.4497 1.42631 14.5154 1.53517 14.5597C1.64403 14.6041 1.76066 14.6262 1.8782 14.6249C1.99575 14.6235 2.11183 14.5986 2.21963 14.5518C2.32743 14.5049 2.42478 14.437 2.50595 14.3519L7.80595 9.05193L13.1059 14.3519C13.2726 14.511 13.4948 14.5986 13.7252 14.5959C13.9556 14.5932 14.1757 14.5005 14.3386 14.3376C14.5015 14.1747 14.5942 13.9546 14.5969 13.7242C14.5996 13.4938 14.512 13.2716 14.3529 13.1049L9.05095 7.80393Z" fill="black"/>
</g>
</svg>
