<svg width="20" height="18" viewBox="0 0 20 18" fill="none" xmlns="http://www.w3.org/2000/svg">
<path id="heart-icon" d="M18.012 2.42097C17.5505 1.91825 16.9888 1.51783 16.3631 1.24552C15.7373 0.973211 15.0615 0.835058 14.379 0.83997C13.3436 0.835416 12.3373 1.18272 11.525 1.82497C11.085 2.1678 10.6964 2.5719 10.371 3.02497C10.0457 2.57188 9.65708 2.16777 9.21704 1.82497C8.40481 1.18272 7.3985 0.835416 6.36304 0.83997C5.68063 0.835058 5.00476 0.973211 4.37902 1.24552C3.75327 1.51783 3.19154 1.91825 2.73004 2.42097C1.77911 3.48642 1.2646 4.87109 1.28904 6.29897C1.33051 7.94388 1.9705 9.51719 3.08904 10.724C4.47615 12.2539 5.98437 13.6695 7.59904 14.957C8.22404 15.49 8.93204 16.093 9.66804 16.736C9.8621 16.9049 10.1107 16.998 10.368 16.998C10.6254 16.998 10.874 16.9049 11.068 16.736C11.803 16.093 12.512 15.489 13.137 14.956C14.7514 13.6688 16.2593 12.2536 17.646 10.724C18.7646 9.51719 19.4046 7.94388 19.446 6.29897C19.4703 4.87141 18.9558 3.48712 18.005 2.42197L18.012 2.42097Z" stroke="black"/>
</svg>
