<svg width="31" height="27" viewBox="0 0 31 27" fill="none" xmlns="http://www.w3.org/2000/svg">
<path d="M16.7551 26.0603C16.7545 26.0606 16.7538 26.0608 16.753 26.0608C16.6674 26.0608 16.5858 26.0607 16.5041 26.0488C14.8291 25.9008 12.5101 23.6048 9.61414 19.2168C8.13813 17.0207 7.30674 14.4552 7.21415 11.8108C7.17596 10.7127 6.80474 9.64222 6.22566 8.70842C5.68965 7.84408 5.2433 6.70523 5.52015 5.52979C5.91115 3.86279 8.14315 3.09779 9.95115 2.74979C10.4555 2.65525 10.9768 2.75695 11.4087 3.0341C11.8405 3.31126 12.1501 3.74291 12.2741 4.24078C12.4623 5.42599 12.4038 6.63432 12.1057 7.79085C11.9721 8.30906 11.8482 8.83655 11.8896 9.37009C11.9129 9.67114 11.9534 9.97049 12.0108 10.2667C12.163 11.0526 12.7624 11.6485 13.4593 12.0425C15.5616 13.2311 18.7708 12.4511 20.4507 10.716C21.6542 9.47293 23.3047 8.64227 25.5351 9.03479C26.4821 9.14057 27.3785 9.51679 28.1172 10.1185C28.856 10.7202 29.4059 11.5219 29.7011 12.4278C30.0335 13.4917 30.102 14.6206 29.9008 15.7169C29.6996 16.8133 29.2347 17.8442 28.5462 18.7208C26.8213 20.5436 20.1476 26.0586 16.7572 26.0598C16.7565 26.0598 16.7558 26.06 16.7551 26.0603ZM10.3212 3.60978C10.3205 3.60914 10.3196 3.60878 10.3187 3.60879C10.2498 3.60954 10.181 3.61623 10.1132 3.62878C9.09415 3.82878 6.68914 4.42079 6.38514 5.73679C5.94414 7.61879 8.05215 9.57078 8.07115 9.58978C8.12672 9.64027 8.16875 9.70388 8.19338 9.77481C8.21802 9.84574 8.22447 9.92172 8.21215 9.99579C8.11922 10.591 8.08272 11.1937 8.10314 11.7958C8.19145 14.2719 8.97197 16.6738 10.3561 18.7288C12.9791 22.7028 15.2562 25.0458 16.5832 25.1628C19.3902 25.4008 26.0891 20.0208 27.8921 18.1158C28.4623 17.353 28.8455 16.467 29.011 15.5292C29.1765 14.5913 29.1197 13.6277 28.8451 12.7158C28.5928 11.9675 28.1317 11.3071 27.5161 10.8126C26.9005 10.318 26.1562 10.0099 25.3711 9.92479C19.9211 8.96479 18.4141 16.8078 18.3981 16.8858C18.3819 16.977 18.3377 17.0609 18.2716 17.1258C18.2056 17.1907 18.1209 17.2335 18.0294 17.2481C17.938 17.2627 17.8442 17.2485 17.7612 17.2074C17.6782 17.1663 17.61 17.1004 17.5661 17.0188C15.9421 14.0558 11.8471 12.2368 11.8081 12.2188C11.7034 12.1711 11.62 12.0863 11.5742 11.9808C11.1371 10.8734 10.9299 9.68874 10.9651 8.49878C10.9658 8.45637 10.9725 8.41427 10.9851 8.37378C11.4534 7.12231 11.5946 5.77204 11.3952 4.45079C11.3367 4.21057 11.1991 3.99702 11.0044 3.84462C10.8101 3.69251 10.5703 3.61016 10.3236 3.61077C10.3227 3.61078 10.3218 3.61042 10.3212 3.60978Z" fill="#303841"/>
<path d="M4.48008 9.8464C4.47948 9.8449 4.47802 9.84392 4.4764 9.84391C4.38453 9.84348 4.29501 9.81468 4.22009 9.76143C4.14445 9.70765 4.08747 9.63161 4.05708 9.54391L3.31108 7.40793C3.2918 7.35284 3.28355 7.29449 3.28684 7.23622C3.29012 7.17795 3.30488 7.12088 3.33023 7.06831C3.35559 7.01574 3.39106 6.96868 3.43462 6.92984C3.47818 6.89099 3.52896 6.86112 3.58408 6.84192L5.73908 6.08491C5.79511 6.06371 5.85481 6.05386 5.91469 6.05594C5.97457 6.05801 6.03343 6.07198 6.08786 6.09701C6.1423 6.12204 6.19122 6.15764 6.23177 6.20175C6.27232 6.24585 6.3037 6.29758 6.32408 6.35392C6.34384 6.41054 6.35199 6.47054 6.34807 6.53038C6.34415 6.59021 6.32825 6.64864 6.30129 6.70219C6.27432 6.75575 6.23685 6.80334 6.19112 6.84211C6.14539 6.88089 6.09232 6.91007 6.03508 6.92791L4.94581 7.30982C4.58788 7.43532 4.39913 7.82691 4.52394 8.18508C4.64925 8.54468 5.04293 8.73398 5.40206 8.60733L6.54308 8.20492C6.59843 8.18522 6.65711 8.17661 6.71579 8.17959C6.77447 8.18258 6.83199 8.19709 6.88506 8.2223C6.93813 8.24751 6.98571 8.28293 7.02509 8.32653C7.06447 8.37014 7.09488 8.42107 7.11458 8.47642C7.13428 8.53177 7.14288 8.59046 7.13989 8.64914C7.13691 8.70781 7.1224 8.76533 7.09718 8.8184C7.07197 8.87147 7.03657 8.91905 6.99297 8.95843C6.94937 8.99781 6.89843 9.02823 6.84308 9.04792L4.62908 9.82892C4.58162 9.8414 4.53284 9.8481 4.48379 9.84888C4.48216 9.84891 4.48068 9.84792 4.48008 9.8464Z" fill="#303841"/>
<path d="M11.811 7.28734C11.811 7.28926 11.8095 7.29081 11.8076 7.2908C11.7034 7.29017 11.6027 7.25308 11.5229 7.18592C11.4423 7.11802 11.3884 7.02376 11.3706 6.91985C11.3529 6.81595 11.3725 6.70911 11.426 6.61831C11.4796 6.5275 11.5635 6.4586 11.663 6.4238L13.6496 5.72645C14.008 5.60064 14.1969 5.20847 14.0719 4.8498C13.9466 4.49034 13.5536 4.30062 13.1942 4.42615L11.99 4.84681C11.8782 4.88566 11.7556 4.87851 11.6491 4.82694C11.5426 4.77537 11.4609 4.68359 11.422 4.5718C11.3832 4.46001 11.3903 4.33738 11.4419 4.23086C11.4935 4.12434 11.5852 4.04266 11.697 4.00381L13.973 3.2038C14.0848 3.16472 14.2076 3.1715 14.3144 3.22266C14.4212 3.27382 14.5034 3.36519 14.543 3.4768L15.289 5.61581C15.3083 5.67089 15.3166 5.72924 15.3133 5.78751C15.31 5.84578 15.2952 5.90284 15.2699 5.9554C15.2445 6.00797 15.2091 6.05503 15.1655 6.09388C15.122 6.13273 15.0712 6.1626 15.016 6.1818L11.959 7.25181C11.9139 7.27333 11.8645 7.28428 11.8146 7.28385C11.8126 7.28384 11.811 7.2854 11.811 7.28734Z" fill="#303841"/>
<path d="M-nan -nanL16.1141 8.48891C15.8872 8.48922 15.6659 8.41866 15.481 8.28706C15.2962 8.15547 15.1571 7.96942 15.0831 7.75491L13.0611 1.93792C12.967 1.66415 12.9839 1.36439 13.1081 1.10291C13.1702 0.973669 13.2575 0.858113 13.3648 0.76299C13.4721 0.667868 13.5973 0.595094 13.7331 0.548917L15.1331 0.0609105C15.2685 0.0136685 15.4119 -0.00642093 15.555 0.00179037C15.6982 0.0100017 15.8383 0.0463572 15.9674 0.10877C16.0965 0.171182 16.212 0.258433 16.3074 0.365529C16.4027 0.472626 16.476 0.597466 16.5231 0.732915L18.5451 6.54992C18.6392 6.82369 18.6223 7.12344 18.4981 7.38492C18.436 7.51416 18.3487 7.62971 18.2414 7.72484C18.1341 7.81996 18.0089 7.89274 17.8731 7.93892L16.4731 8.42692C16.358 8.46859 16.2365 8.48957 16.1141 8.48891L-nan -nanZM-nan -nanL15.4891 0.895917C15.4666 0.896173 15.4443 0.900223 15.4231 0.907911L14.0231 1.39592C13.9985 1.40419 13.9759 1.4173 13.9565 1.43448C13.9371 1.45165 13.9213 1.47254 13.9101 1.49592C13.8983 1.51931 13.8915 1.54491 13.8901 1.57107C13.8887 1.59724 13.8928 1.62341 13.9021 1.64792L15.9241 7.46491C15.942 7.51446 15.9787 7.55497 16.0262 7.57763C16.0738 7.60028 16.1283 7.60326 16.1781 7.58591L17.5781 7.09791C17.6031 7.08976 17.6262 7.0766 17.646 7.05923C17.6658 7.04187 17.6818 7.02065 17.6931 6.99689C17.7045 6.97313 17.7108 6.94732 17.7118 6.92102C17.7129 6.89472 17.7086 6.86849 17.6991 6.84392L15.6771 1.02691C15.663 0.988447 15.6373 0.955252 15.6037 0.931821C15.5701 0.908391 15.5301 0.89586 15.4891 0.895917L-nan -nanZ" fill="#303841"/>
<path d="M3.11309 13.0287C2.88619 13.029 2.66486 12.9585 2.48002 12.8269C2.29518 12.6953 2.15607 12.5092 2.0821 12.2947L0.0600966 6.47771C-0.034485 6.20424 -0.016882 5.90446 0.109062 5.64395C0.235006 5.38344 0.459029 5.18343 0.732094 5.08771L2.1321 4.59972C2.40503 4.50554 2.70414 4.52338 2.96394 4.64934C3.22373 4.7753 3.423 4.9991 3.51809 5.27171L5.54009 11.0887C5.63467 11.3622 5.61707 11.662 5.49113 11.9225C5.36518 12.183 5.14116 12.383 4.8681 12.4787L3.4681 12.9667C3.35252 13.0064 3.2313 13.0274 3.10909 13.0287H3.11309ZM2.4886 5.43022C2.4883 5.42932 2.48745 5.42872 2.48649 5.42873C2.46452 5.42916 2.44276 5.4332 2.4221 5.4407L1.0221 5.92871C0.997078 5.93686 0.973962 5.95002 0.954185 5.96739C0.934409 5.98476 0.918385 6.00598 0.907066 6.02974C0.895747 6.0535 0.889369 6.07931 0.888344 6.10561C0.887318 6.13191 0.891665 6.15814 0.9011 6.18271L2.92309 11.9997C2.93124 12.0247 2.94442 12.0478 2.96178 12.0676C2.97915 12.0874 3.00036 12.1034 3.02412 12.1147C3.04788 12.1261 3.0737 12.1324 3.1 12.1335C3.1263 12.1345 3.15253 12.1301 3.1771 12.1207L4.5771 11.6327C4.60212 11.6246 4.62522 11.6114 4.645 11.594C4.66477 11.5767 4.68081 11.5555 4.69213 11.5317C4.70345 11.5079 4.70981 11.4821 4.71084 11.4558C4.71186 11.4295 4.70753 11.4033 4.6981 11.3787L2.67609 5.56171C2.66185 5.52359 2.63633 5.49073 2.60291 5.4675C2.56993 5.44457 2.53082 5.43211 2.49067 5.43173C2.48973 5.43172 2.4889 5.43112 2.4886 5.43022Z" fill="#303841"/>
</svg>
