<svg width="24" height="24" viewBox="0 0 24 24" fill="none" xmlns="http://www.w3.org/2000/svg">
<g id="weight-loss">
<path id="Path 876" d="M2.78799 23.99H21.2C21.9395 23.9892 22.6486 23.6951 23.1716 23.1723C23.6946 22.6495 23.9889 21.9405 23.99 21.201V2.787C23.9884 2.04781 23.6939 1.33939 23.1709 0.816986C22.6479 0.29458 21.9392 0.000792271 21.2 0H2.787C2.04833 0.00158514 1.34037 0.295722 0.818047 0.818043C0.295726 1.34036 0.00158514 2.04833 0 2.787V21.2C0.00079359 21.9395 0.294857 22.6486 0.817696 23.1716C1.34053 23.6946 2.04946 23.9889 2.789 23.99H2.78799ZM0.598 2.79C0.598529 2.20934 0.829431 1.65261 1.24002 1.24202C1.65061 0.83143 2.20733 0.600528 2.78799 0.599998H21.2C21.7807 0.600528 22.3374 0.83143 22.748 1.24202C23.1586 1.65261 23.3895 2.20934 23.39 2.79V21.2C23.3895 21.7807 23.1586 22.3374 22.748 22.748C22.3374 23.1586 21.7807 23.3895 21.2 23.39H2.787C2.20634 23.3895 1.64961 23.1586 1.23902 22.748C0.828431 22.3374 0.59753 21.7807 0.597 21.2L0.598 2.79Z" fill="#303841"/>
<path id="Path 877" d="M8.3042 8.91905C8.33203 8.95713 8.36845 8.98811 8.4105 9.00948C8.45254 9.03086 8.49904 9.04201 8.54621 9.04205H15.4782C15.5254 9.04201 15.5719 9.03086 15.6139 9.00948C15.656 8.98811 15.6924 8.95713 15.7202 8.91905L18.1202 5.64805C18.1624 5.59028 18.1826 5.51934 18.1771 5.44801C18.1716 5.37668 18.1408 5.30966 18.0902 5.25905C16.0202 3.18905 12.1762 3.21105 12.0182 3.21005C11.8602 3.20905 8.00921 3.18905 5.93921 5.25905C5.88865 5.30966 5.85783 5.37668 5.85233 5.44801C5.84683 5.51934 5.86701 5.59028 5.90921 5.64805L8.3042 8.91905ZM-nan -nanL12.8482 8.44205H11.6666C11.3224 8.44205 11.0638 8.10503 11.3259 7.88201C11.4942 7.73873 11.7081 7.66004 11.9292 7.66004C12.1503 7.66004 12.3642 7.73873 12.5326 7.88201C12.7009 8.02528 12.8128 8.22381 12.8482 8.44205L-nan -nanZM12.0152 3.81004C12.0425 3.81004 13.7542 3.80223 15.4437 4.38398C16.6963 4.81532 16.8771 6.32729 16.0937 7.39573L15.7229 7.90164C15.4729 8.2426 15.0754 8.44405 14.6526 8.44405H14.1355C13.7451 8.44405 13.4346 8.13002 13.2319 7.79645C13.0298 7.46401 12.8974 7.04323 13.081 6.70026L13.7642 5.42405C13.7834 5.38927 13.7956 5.35101 13.7999 5.31149C13.8042 5.27198 13.8006 5.232 13.7894 5.19388C13.7781 5.15576 13.7594 5.12026 13.7343 5.08943C13.7092 5.05861 13.6782 5.03308 13.6432 5.01433C13.6081 4.99558 13.5697 4.98398 13.5302 4.98021C13.4906 4.97644 13.4507 4.98057 13.4127 4.99236C13.3747 5.00415 13.3395 5.02337 13.309 5.04889C13.2786 5.07442 13.2535 5.10574 13.2352 5.14105L12.4916 6.52978C12.3141 6.86124 11.9319 7.01394 11.5658 7.09976C11.3599 7.14802 11.1665 7.23914 10.9982 7.36718C10.8299 7.49522 10.6904 7.6573 10.5889 7.84284C10.4176 8.15609 10.1341 8.44405 9.77709 8.44405H9.30422C8.92265 8.44405 8.56391 8.26223 8.3383 7.9545L7.92922 7.39649C7.14582 6.32794 7.32786 4.81619 8.58124 4.38658C10.2676 3.80855 11.977 3.81489 12.0139 3.81009C12.0146 3.81001 12.0145 3.81004 12.0152 3.81004Z" fill="#303841"/>
<path id="Path 878" d="M4.15584 12.06H10.0558C10.1354 12.06 10.2117 12.0284 10.268 11.9721C10.3242 11.9158 10.3558 11.8395 10.3558 11.7599C10.3558 11.6804 10.3242 11.6041 10.268 11.5478C10.2117 11.4916 10.1354 11.46 10.0558 11.46H4.15584C4.07627 11.46 3.99996 11.4916 3.9437 11.5478C3.88743 11.6041 3.85583 11.6804 3.85583 11.7599C3.85583 11.8395 3.88743 11.9158 3.9437 11.9721C3.99996 12.0284 4.07627 12.06 4.15584 12.06Z" fill="#303841"/>
<path id="Path 879" d="M-nan -nanL13.6307 11.759C13.6307 11.7984 13.6385 11.8374 13.6536 11.8738C13.6686 11.9102 13.6907 11.9432 13.7186 11.9711C13.7465 11.999 13.7795 12.0211 13.8159 12.0361C13.8523 12.0512 13.8913 12.059 13.9307 12.059H19.8307C19.9103 12.059 19.9866 12.0274 20.0429 11.9711C20.0991 11.9148 20.1307 11.8385 20.1307 11.759C20.1307 11.6794 20.0991 11.6031 20.0429 11.5468C19.9866 11.4906 19.9103 11.459 19.8307 11.459H13.9307C13.8913 11.459 13.8523 11.4667 13.8159 11.4818C13.7795 11.4969 13.7465 11.519 13.7186 11.5468C13.6907 11.5747 13.6686 11.6078 13.6536 11.6442C13.6385 11.6806 13.6307 11.7196 13.6307 11.759L-nan -nanZ" fill="#303841"/>
<path id="Path 880" d="M4.15584 14.768H10.0558C10.1354 14.768 10.2117 14.7363 10.268 14.6801C10.3242 14.6238 10.3558 14.5475 10.3558 14.468C10.3558 14.3884 10.3242 14.3121 10.268 14.2558C10.2117 14.1996 10.1354 14.168 10.0558 14.168H4.15584C4.07627 14.168 3.99996 14.1996 3.9437 14.2558C3.88743 14.3121 3.85583 14.3884 3.85583 14.468C3.85583 14.5475 3.88743 14.6238 3.9437 14.6801C3.99996 14.7363 4.07627 14.768 4.15584 14.768Z" fill="#303841"/>
<path id="Path 881" d="M-nan -nanL19.8307 14.168H13.9307C13.8512 14.168 13.7749 14.1996 13.7186 14.2558C13.6623 14.3121 13.6307 14.3884 13.6307 14.468C13.6307 14.5476 13.6623 14.6239 13.7186 14.6801C13.7749 14.7364 13.8512 14.768 13.9307 14.768H19.8307C19.9103 14.768 19.9866 14.7364 20.0429 14.6801C20.0991 14.6239 20.1307 14.5476 20.1307 14.468C20.1307 14.3884 20.0991 14.3121 20.0429 14.2558C19.9866 14.1996 19.9103 14.168 19.8307 14.168L-nan -nanZ" fill="#303841"/>
<path id="Path 882" d="M4.15584 17.476H10.0558C10.1354 17.476 10.2117 17.4444 10.268 17.3881C10.3242 17.3318 10.3558 17.2555 10.3558 17.176C10.3558 17.0964 10.3242 17.0201 10.268 16.9638C10.2117 16.9076 10.1354 16.876 10.0558 16.876H4.15584C4.07627 16.876 3.99996 16.9076 3.9437 16.9638C3.88743 17.0201 3.85583 17.0964 3.85583 17.176C3.85583 17.2555 3.88743 17.3318 3.9437 17.3881C3.99996 17.4444 4.07627 17.476 4.15584 17.476Z" fill="#303841"/>
<path id="Path 883" d="M-nan -nanL19.8307 16.876H13.9307C13.8512 16.876 13.7749 16.9076 13.7186 16.9638C13.6623 17.0201 13.6307 17.0964 13.6307 17.176C13.6307 17.2556 13.6623 17.3319 13.7186 17.3881C13.7749 17.4444 13.8512 17.476 13.9307 17.476H19.8307C19.9103 17.476 19.9866 17.4444 20.0429 17.3881C20.0991 17.3319 20.1307 17.2556 20.1307 17.176C20.1307 17.0964 20.0991 17.0201 20.0429 16.9638C19.9866 16.9076 19.9103 16.876 19.8307 16.876L-nan -nanZ" fill="#303841"/>
<path id="Path 884" d="M4.15584 20.183H10.0558C10.1354 20.183 10.2117 20.1514 10.268 20.0952C10.3242 20.0389 10.3558 19.9626 10.3558 19.883C10.3558 19.8034 10.3242 19.7271 10.268 19.6709C10.2117 19.6146 10.1354 19.583 10.0558 19.583H4.15584C4.07627 19.583 3.99996 19.6146 3.9437 19.6709C3.88743 19.7271 3.85583 19.8034 3.85583 19.883C3.85583 19.9626 3.88743 20.0389 3.9437 20.0952C3.99996 20.1514 4.07627 20.183 4.15584 20.183Z" fill="#303841"/>
<path id="Path 885" d="M-nan -nanL19.8307 19.583H13.9307C13.8512 19.583 13.7749 19.6146 13.7186 19.6709C13.6623 19.7272 13.6307 19.8035 13.6307 19.883C13.6307 19.9626 13.6623 20.0389 13.7186 20.0952C13.7749 20.1514 13.8512 20.183 13.9307 20.183H19.8307C19.9103 20.183 19.9866 20.1514 20.0429 20.0952C20.0991 20.0389 20.1307 19.9626 20.1307 19.883C20.1307 19.8035 20.0991 19.7272 20.0429 19.6709C19.9866 19.6146 19.9103 19.583 19.8307 19.583L-nan -nanZ" fill="#303841"/>
</g>
</svg>
