<svg width="18" height="18" viewBox="0 0 18 18" fill="none" xmlns="http://www.w3.org/2000/svg">
<path d="M16.5 1.81796H15V1.21196C15 0.893703 14.8736 0.588478 14.6485 0.363435C14.4235 0.138391 14.1183 0.0119629 13.8 0.0119629C13.4818 0.0119629 13.1765 0.138391 12.9515 0.363435C12.7264 0.588478 12.6 0.893703 12.6 1.21196V1.81796H10.2V1.21196C10.2 0.893703 10.0736 0.588478 9.84854 0.363435C9.6235 0.138391 9.31828 0.0119629 9.00002 0.0119629C8.68176 0.0119629 8.37653 0.138391 8.15149 0.363435C7.92644 0.588478 7.80002 0.893703 7.80002 1.21196V1.81796H5.40002V1.21196C5.40002 0.893703 5.27359 0.588478 5.04854 0.363435C4.8235 0.138391 4.51828 0.0119629 4.20002 0.0119629C3.88176 0.0119629 3.57653 0.138391 3.35149 0.363435C3.12644 0.588478 3.00002 0.893703 3.00002 1.21196V1.81796H1.50002C1.10024 1.82008 0.717668 1.98085 0.436391 2.26494C0.155114 2.54903 -0.00184498 2.93319 1.63679e-05 3.33296V15.454C-0.00184498 15.8537 0.155114 16.2379 0.436391 16.522C0.717668 16.8061 1.10024 16.9668 1.50002 16.969H9.90002C9.98038 16.969 10.0574 16.937 10.1143 16.8802C10.1711 16.8234 10.203 16.7463 10.203 16.666C10.203 16.5856 10.1711 16.5085 10.1143 16.4517C10.0574 16.3949 9.98038 16.363 9.90002 16.363H1.50002C1.26033 16.3611 1.03113 16.2645 0.862486 16.0941C0.693844 15.9238 0.599481 15.6937 0.600016 15.454V6.05996H17.4V11.211C17.4 11.2905 17.4316 11.3668 17.4879 11.4231C17.5441 11.4794 17.6205 11.511 17.7 11.511C17.7796 11.511 17.8559 11.4794 17.9121 11.4231C17.9684 11.3668 18 11.2905 18 11.211V3.33296C18.0019 2.93319 17.8449 2.54903 17.5636 2.26494C17.2824 1.98085 16.8998 1.82008 16.5 1.81796ZM13.2 1.21196C13.2 1.05283 13.2632 0.900221 13.3758 0.787699C13.4883 0.675177 13.6409 0.611963 13.8 0.611963C13.9591 0.611963 14.1118 0.675177 14.2243 0.787699C14.3368 0.900221 14.4 1.05283 14.4 1.21196V3.02996C14.4 3.18909 14.3368 3.34171 14.2243 3.45423C14.1118 3.56675 13.9591 3.62996 13.8 3.62996C13.6409 3.62996 13.4883 3.56675 13.3758 3.45423C13.2632 3.34171 13.2 3.18909 13.2 3.02996V1.21196ZM8.40002 1.21196C8.40002 1.05283 8.46323 0.900221 8.57575 0.787699C8.68827 0.675177 8.84089 0.611963 9.00002 0.611963C9.15915 0.611963 9.31176 0.675177 9.42428 0.787699C9.5368 0.900221 9.60002 1.05283 9.60002 1.21196V3.02996C9.60002 3.18909 9.5368 3.34171 9.42428 3.45423C9.31176 3.56675 9.15915 3.62996 9.00002 3.62996C8.84089 3.62996 8.68827 3.56675 8.57575 3.45423C8.46323 3.34171 8.40002 3.18909 8.40002 3.02996V1.21196ZM3.60002 1.21196C3.60002 1.05283 3.66323 0.900221 3.77575 0.787699C3.88827 0.675177 4.04089 0.611963 4.20002 0.611963C4.35915 0.611963 4.51176 0.675177 4.62428 0.787699C4.7368 0.900221 4.80002 1.05283 4.80002 1.21196V3.02996C4.80002 3.18909 4.7368 3.34171 4.62428 3.45423C4.51176 3.56675 4.35915 3.62996 4.20002 3.62996C4.04089 3.62996 3.88827 3.56675 3.77575 3.45423C3.66323 3.34171 3.60002 3.18909 3.60002 3.02996V1.21196ZM17.4 5.45396H0.600016V3.33296C0.599481 3.09327 0.693844 2.86312 0.862486 2.69279C1.03113 2.52246 1.26033 2.42581 1.50002 2.42396H3.00002V3.02996C3.00002 3.34822 3.12644 3.65345 3.35149 3.87849C3.57653 4.10353 3.88176 4.22996 4.20002 4.22996C4.51828 4.22996 4.8235 4.10353 5.04854 3.87849C5.27359 3.65345 5.40002 3.34822 5.40002 3.02996V2.42396H7.80002V3.02996C7.80002 3.34822 7.92644 3.65345 8.15149 3.87849C8.37653 4.10353 8.68176 4.22996 9.00002 4.22996C9.31828 4.22996 9.6235 4.10353 9.84854 3.87849C10.0736 3.65345 10.2 3.34822 10.2 3.02996V2.42396H12.6V3.02996C12.6 3.34822 12.7264 3.65345 12.9515 3.87849C13.1765 4.10353 13.4818 4.22996 13.8 4.22996C14.1183 4.22996 14.4235 4.10353 14.6485 3.87849C14.8736 3.65345 15 3.34822 15 3.02996V2.42396H16.5C16.7397 2.42581 16.9689 2.52246 17.1375 2.69279C17.3062 2.86312 17.4006 3.09327 17.4 3.33296V5.45396Z" fill="black"/>
<path d="M8.19188 8.15501C8.19188 8.0873 8.17853 8.02025 8.15259 7.9577C8.12664 7.89515 8.08862 7.83834 8.04069 7.7905C7.99276 7.74267 7.93587 7.70475 7.87327 7.67893C7.81067 7.65311 7.7436 7.63988 7.67588 7.64002H6.64488C6.5083 7.64002 6.3773 7.69428 6.28072 7.79086C6.18414 7.88744 6.12988 8.01843 6.12988 8.15501V8.92802C6.12988 9.0646 6.18414 9.1956 6.28072 9.29218C6.3773 9.38876 6.5083 9.44302 6.64488 9.44302H7.67588C7.81247 9.44302 7.94346 9.38876 8.04004 9.29218C8.13662 9.1956 8.19088 9.0646 8.19088 8.92802L8.19188 8.15501ZM6.64588 8.92802V8.15501H7.67688V8.92802H6.64588Z" fill="black"/>
<path d="M4.12401 8.15501C4.12401 8.0873 4.11066 8.02025 4.08471 7.9577C4.05877 7.89515 4.02075 7.83834 3.97282 7.7905C3.92489 7.74267 3.868 7.70475 3.8054 7.67893C3.7428 7.65311 3.67573 7.63988 3.60801 7.64002H2.57701C2.50938 7.64002 2.44241 7.65334 2.37993 7.67922C2.31745 7.7051 2.26067 7.74303 2.21285 7.79086C2.16503 7.83868 2.12709 7.89545 2.10121 7.95793C2.07533 8.02042 2.06201 8.08738 2.06201 8.15501V8.92802C2.06201 8.99565 2.07533 9.06262 2.10121 9.1251C2.12709 9.18758 2.16503 9.24435 2.21285 9.29218C2.26067 9.34 2.31745 9.37793 2.37993 9.40381C2.44241 9.42969 2.50938 9.44302 2.57701 9.44302H3.60801C3.67564 9.44302 3.74261 9.42969 3.80509 9.40381C3.86758 9.37793 3.92435 9.34 3.97217 9.29218C4.01999 9.24435 4.05793 9.18758 4.08381 9.1251C4.10969 9.06262 4.12301 8.99565 4.12301 8.92802L4.12401 8.15501ZM2.57801 8.92802V8.15501H3.60901V8.92802H2.57801Z" fill="black"/>
<path d="M15.423 9.44001C15.5595 9.44001 15.6905 9.38576 15.7871 9.28918C15.8837 9.19259 15.938 9.0616 15.938 8.92501V8.15201C15.9372 8.01595 15.8826 7.88573 15.7861 7.78979C15.6896 7.69386 15.559 7.64001 15.423 7.64001H14.392C14.2554 7.64001 14.1244 7.69427 14.0278 7.79086C13.9312 7.88744 13.877 8.01843 13.877 8.15501V8.92801C13.877 9.0646 13.9312 9.19559 14.0278 9.29218C14.1244 9.38876 14.2554 9.44301 14.392 9.44301L15.423 9.44001ZM14.392 8.15201H15.423V8.92501H14.392V8.15201Z" fill="black"/>
<path d="M8.19188 10.905C8.19188 10.8373 8.17853 10.7703 8.15259 10.7077C8.12664 10.6452 8.08862 10.5883 8.04069 10.5405C7.99276 10.4927 7.93587 10.4548 7.87327 10.4289C7.81067 10.4031 7.7436 10.3899 7.67588 10.39H6.64488C6.5083 10.39 6.3773 10.4443 6.28072 10.5409C6.18414 10.6374 6.12988 10.7684 6.12988 10.905V11.678C6.12988 11.8146 6.18414 11.9456 6.28072 12.0422C6.3773 12.1388 6.5083 12.193 6.64488 12.193H7.67588C7.81247 12.193 7.94346 12.1388 8.04004 12.0422C8.13662 11.9456 8.19088 11.8146 8.19088 11.678L8.19188 10.905ZM6.64588 11.678V10.905H7.67688V11.678H6.64588Z" fill="black"/>
<path d="M4.12401 10.905C4.12401 10.8373 4.11066 10.7703 4.08471 10.7077C4.05877 10.6452 4.02075 10.5883 3.97282 10.5405C3.92489 10.4927 3.868 10.4548 3.8054 10.4289C3.7428 10.4031 3.67573 10.3899 3.60801 10.39H2.57701C2.50938 10.39 2.44241 10.4033 2.37993 10.4292C2.31745 10.4551 2.26067 10.493 2.21285 10.5409C2.16503 10.5887 2.12709 10.6454 2.10121 10.7079C2.07533 10.7704 2.06201 10.8374 2.06201 10.905V11.678C2.06201 11.7456 2.07533 11.8126 2.10121 11.8751C2.12709 11.9376 2.16503 11.9944 2.21285 12.0422C2.26067 12.09 2.31745 12.1279 2.37993 12.1538C2.44241 12.1797 2.50938 12.193 2.57701 12.193H3.60801C3.67564 12.193 3.74261 12.1797 3.80509 12.1538C3.86758 12.1279 3.92435 12.09 3.97217 12.0422C4.01999 11.9944 4.05793 11.9376 4.08381 11.8751C4.10969 11.8126 4.12301 11.7456 4.12301 11.678L4.12401 10.905ZM2.57801 11.678V10.905H3.60901V11.678H2.57801Z" fill="black"/>
<path d="M7.67588 13.14H6.64488C6.5083 13.14 6.3773 13.1943 6.28072 13.2909C6.18414 13.3874 6.12988 13.5184 6.12988 13.655V14.428C6.12988 14.5646 6.18414 14.6956 6.28072 14.7922C6.3773 14.8888 6.5083 14.943 6.64488 14.943H7.67588C7.81247 14.943 7.94346 14.8888 8.04004 14.7922C8.13662 14.6956 8.19088 14.5646 8.19088 14.428V13.655C8.19088 13.5184 8.13662 13.3874 8.04004 13.2909C7.94346 13.1943 7.81247 13.14 7.67588 13.14ZM6.64488 14.428V13.655H7.67588V14.428H6.64488Z" fill="black"/>
<path d="M10.3231 9.44001H11.3541C11.4907 9.44001 11.6217 9.38576 11.7183 9.28918C11.8148 9.19259 11.8691 9.0616 11.8691 8.92501V8.15201C11.8683 8.01595 11.8137 7.88573 11.7172 7.78979C11.6207 7.69386 11.4902 7.64001 11.3541 7.64001H10.3231C10.1865 7.64001 10.0555 7.69427 9.95895 7.79086C9.86236 7.88744 9.80811 8.01843 9.80811 8.15501V8.92801C9.8089 9.06408 9.86351 9.1943 9.96 9.29024C10.0565 9.38617 10.187 9.44002 10.3231 9.44001ZM10.3231 8.15201H11.3541V8.92501H10.3231V8.15201Z" fill="black"/>
<path d="M9.77881 11.678C9.77881 11.8146 9.83307 11.9456 9.92965 12.0422C10.0262 12.1388 10.1572 12.193 10.2938 12.193C10.3593 12.1889 10.4208 12.16 10.4658 12.1122C10.5107 12.0643 10.5358 12.0012 10.5358 11.9355C10.5358 11.8699 10.5107 11.8067 10.4658 11.7589C10.4208 11.711 10.3593 11.6821 10.2938 11.678V10.905H11.3248C11.3903 10.9009 11.4518 10.872 11.4968 10.8242C11.5417 10.7763 11.5668 10.7132 11.5668 10.6475C11.5668 10.5819 11.5417 10.5187 11.4968 10.4708C11.4518 10.423 11.3903 10.3941 11.3248 10.39H10.2938C10.1572 10.39 10.0262 10.4443 9.92965 10.5409C9.83307 10.6374 9.77881 10.7684 9.77881 10.905V11.678Z" fill="black"/>
<path d="M3.60801 13.14H2.57701C2.50938 13.14 2.44241 13.1533 2.37993 13.1792C2.31745 13.2051 2.26067 13.243 2.21285 13.2909C2.16503 13.3387 2.12709 13.3954 2.10121 13.4579C2.07533 13.5204 2.06201 13.5874 2.06201 13.655V14.428C2.06201 14.4956 2.07533 14.5626 2.10121 14.6251C2.12709 14.6876 2.16503 14.7444 2.21285 14.7922C2.26067 14.84 2.31745 14.8779 2.37993 14.9038C2.44241 14.9297 2.50938 14.943 2.57701 14.943H3.60801C3.67564 14.943 3.74261 14.9297 3.80509 14.9038C3.86758 14.8779 3.92435 14.84 3.97217 14.7922C4.01999 14.7444 4.05793 14.6876 4.08381 14.6251C4.10969 14.5626 4.12301 14.4956 4.12301 14.428V13.655C4.12301 13.5874 4.10969 13.5204 4.08381 13.4579C4.05793 13.3954 4.01999 13.3387 3.97217 13.2909C3.92435 13.243 3.86758 13.2051 3.80509 13.1792C3.74261 13.1533 3.67564 13.14 3.60801 13.14ZM2.57701 14.428V13.655H3.60801V14.428H2.57701Z" fill="black"/>
<path d="M14.6498 11.3C13.9872 11.3 13.3395 11.4965 12.7886 11.8646C12.2377 12.2327 11.8084 12.7559 11.5548 13.3681C11.3013 13.9802 11.2349 14.6538 11.3642 15.3036C11.4934 15.9534 11.8125 16.5504 12.281 17.0189C12.7495 17.4874 13.3464 17.8064 13.9963 17.9357C14.6461 18.0649 15.3197 17.9986 15.9318 17.745C16.5439 17.4915 17.0671 17.0621 17.4352 16.5112C17.8033 15.9603 17.9998 15.3126 17.9998 14.65C17.9998 13.7616 17.6469 12.9095 17.0186 12.2812C16.3904 11.653 15.5383 11.3 14.6498 11.3ZM14.6498 17.4851C14.0891 17.4851 13.541 17.3188 13.0748 17.0073C12.6086 16.6958 12.2452 16.253 12.0306 15.735C11.816 15.2169 11.7599 14.6469 11.8693 14.097C11.9787 13.547 12.2487 13.0419 12.6452 12.6454C13.0416 12.2489 13.5468 11.9789 14.0967 11.8695C14.6467 11.7601 15.2167 11.8163 15.7347 12.0308C16.2527 12.2454 16.6955 12.6088 17.007 13.075C17.3185 13.5412 17.4848 14.0893 17.4848 14.65C17.4848 15.4019 17.1861 16.123 16.6545 16.6547C16.1228 17.1864 15.4017 17.4851 14.6498 17.4851Z" fill="black"/>
<path d="M16.139 13.57L14.139 15.57L13.228 14.659C13.2047 14.6323 13.1763 14.6107 13.1443 14.5955C13.1124 14.5803 13.0776 14.5718 13.0423 14.5706C13.0069 14.5694 12.9717 14.5754 12.9388 14.5884C12.9059 14.6014 12.876 14.621 12.851 14.646C12.8259 14.671 12.8063 14.7009 12.7934 14.7338C12.7804 14.7667 12.7743 14.802 12.7755 14.8373C12.7768 14.8727 12.7852 14.9074 12.8005 14.9394C12.8157 14.9713 12.8373 14.9998 12.864 15.023L13.957 16.116C14.0053 16.1641 14.0707 16.1911 14.139 16.1911C14.2072 16.1911 14.2726 16.1641 14.321 16.116L16.508 13.929C16.5346 13.9058 16.5563 13.8773 16.5715 13.8454C16.5867 13.8134 16.5952 13.7787 16.5964 13.7433C16.5976 13.708 16.5915 13.6727 16.5786 13.6398C16.5656 13.6069 16.546 13.577 16.521 13.552C16.4959 13.527 16.4661 13.5074 16.4331 13.4944C16.4002 13.4814 16.365 13.4754 16.3296 13.4766C16.2943 13.4778 16.2596 13.4863 16.2276 13.5015C16.1957 13.5167 16.1672 13.5383 16.144 13.565L16.139 13.57Z" fill="black"/>
</svg>
