<svg width="16" height="16" viewBox="0 0 16 16" fill="none" xmlns="http://www.w3.org/2000/svg">
<path d="M15.102 10.1569C14.9649 10.049 14.7955 9.99039 14.621 9.99039C14.4465 9.99039 14.2771 10.049 14.14 10.1569C13.0125 11.0771 11.5812 11.5415 10.1282 11.4584C8.67524 11.3753 7.30617 10.7507 6.291 9.70789C5.24102 8.67782 4.61936 7.28882 4.55073 5.81953C4.48211 4.35025 4.9716 2.90935 5.921 1.78589C6.02887 1.66294 6.08835 1.50496 6.08835 1.34139C6.08835 1.17783 6.02887 1.01985 5.921 0.896894C5.8233 0.760366 5.68021 0.663057 5.51732 0.622383C5.35444 0.581709 5.18241 0.600323 5.032 0.674894C4.01655 1.1614 3.11958 1.86375 2.40375 2.7329C1.68793 3.60204 1.17051 4.617 0.887656 5.70686C0.604801 6.79673 0.563331 7.93521 0.766142 9.04277C0.968953 10.1503 1.41116 11.2002 2.06185 12.1192C2.71254 13.0381 3.55603 13.8038 4.53339 14.3629C5.51075 14.922 6.5984 15.261 7.72035 15.3561C8.8423 15.4512 9.97148 15.3002 11.029 14.9136C12.0865 14.527 13.0469 13.9142 13.843 13.1179C14.4599 12.4956 14.9613 11.7686 15.324 10.9709C15.4016 10.8333 15.4218 10.6707 15.3802 10.5183C15.3387 10.3659 15.2387 10.236 15.102 10.1569V10.1569Z" stroke="black" stroke-width="0.8"/>
</svg>
