<svg width="18" height="16" viewBox="0 0 18 16" fill="none" xmlns="http://www.w3.org/2000/svg">
<path d="M15.747 2.47091C15.3503 2.03898 14.8676 1.69491 14.3299 1.46085C13.7922 1.22679 13.2114 1.10792 12.625 1.11191C11.736 1.10879 10.8722 1.4074 10.175 1.95891C9.79646 2.25466 9.46239 2.60321 9.18296 2.99391C8.90296 2.60305 8.5682 2.25448 8.18896 1.95891C7.49095 1.40669 6.626 1.10803 5.73596 1.11191C5.14954 1.10792 4.56877 1.22679 4.03107 1.46085C3.49336 1.69491 3.01063 2.03898 2.61396 2.47091C1.79664 3.38625 1.35425 4.57596 1.37496 5.80291C1.41162 7.21569 1.96197 8.56668 2.92296 9.60291C4.11475 10.9178 5.41062 12.1344 6.79796 13.2409C7.33496 13.6989 7.94396 14.2169 8.57596 14.7699C8.74298 14.9162 8.95745 14.9968 9.17946 14.9968C9.40148 14.9968 9.61594 14.9162 9.78296 14.7699C10.415 14.2169 11.024 13.6979 11.561 13.2399C12.9483 12.1337 14.2442 10.9175 15.436 9.60291C16.397 8.56673 16.9474 7.21571 16.984 5.80291C17.005 4.57609 16.5629 3.3864 15.746 2.47091H15.747Z" stroke="black"/>
</svg>
