<svg width="16" height="16" viewBox="0 0 16 16" fill="none" xmlns="http://www.w3.org/2000/svg">
<path d="M7.75001 0.479004C6.2625 0.479004 4.80839 0.920103 3.57157 1.74652C2.33474 2.57294 1.37075 3.74756 0.801508 5.12184C0.232261 6.49612 0.0833223 8.00835 0.373522 9.46728C0.663721 10.9262 1.38003 12.2663 2.43186 13.3182C3.48369 14.37 4.8238 15.0863 6.28273 15.3765C7.74166 15.6667 9.25389 15.5177 10.6282 14.9485C12.0025 14.3793 13.1771 13.4153 14.0035 12.1784C14.8299 10.9416 15.271 9.48752 15.271 8C15.271 6.00531 14.4786 4.09232 13.0682 2.68185C11.6577 1.27139 9.7447 0.479004 7.75001 0.479004ZM7.75001 14.77C7.15001 14.77 6.38701 13.661 5.91801 11.761H9.58301C9.11401 13.66 8.34601 14.77 7.75001 14.77ZM5.759 11.011C5.60324 10.1416 5.51797 9.26111 5.50401 8.37801H10.004C9.99007 9.26111 9.9048 10.1416 9.74901 11.011H5.759ZM1.00201 8.37901H4.75101C4.76546 9.26126 4.84702 10.1411 4.995 11.011H1.69501C1.28424 10.1907 1.04599 9.29496 0.995005 8.37901H1.00201ZM7.75201 1.23301C8.35201 1.23301 9.11501 2.342 9.58401 4.242H5.92001C6.38701 2.34 7.15901 1.231 7.75001 1.231L7.75201 1.23301ZM9.746 4.994C9.90176 5.86337 9.98705 6.74391 10.001 7.62701H5.50101C5.51497 6.74391 5.60025 5.86337 5.75601 4.994H9.746ZM4.75101 7.626H1.00201C1.053 6.71005 1.29123 5.81427 1.70201 4.994H5.00201C4.85362 5.86384 4.77171 6.74372 4.75701 7.626H4.75101ZM10.751 8.37801H14.5C14.4491 9.2943 14.2109 10.1904 13.8 11.011H10.5C10.648 10.1408 10.7296 9.26059 10.744 8.37801H10.751ZM10.751 7.626C10.7366 6.74375 10.655 5.86387 10.507 4.994H13.807C14.2179 5.81459 14.4561 6.71071 14.507 7.62701L10.751 7.626ZM13.375 4.241H10.353C10.1529 3.2234 9.75619 2.25462 9.18501 1.389C10.8976 1.76282 12.3991 2.78485 13.375 4.241ZM6.315 1.389C5.7438 2.25461 5.34705 3.22339 5.14701 4.241H2.12501C3.1009 2.78485 4.6024 1.76282 6.315 1.389ZM2.12501 11.763H5.14701C5.34705 12.7806 5.7438 13.7494 6.315 14.615C4.6024 14.2412 3.1009 13.2192 2.12501 11.763ZM9.18501 14.615C9.75619 13.7494 10.1529 12.7806 10.353 11.763H13.375C12.3992 13.2192 10.8977 14.2413 9.18501 14.615Z" fill="black"/>
</svg>
