<svg width="14" height="18" viewBox="0 0 14 18" fill="none" xmlns="http://www.w3.org/2000/svg">
<path d="M12.3 6.571H11.293V5.222C11.293 3.96965 10.7955 2.76859 9.90996 1.88304C9.02441 0.997495 7.82335 0.5 6.571 0.5C5.31865 0.5 4.11759 0.997495 3.23204 1.88304C2.34649 2.76859 1.849 3.96965 1.849 5.222V6.571H0.836998C0.74762 6.571 0.661901 6.60651 0.598701 6.6697C0.535502 6.7329 0.5 6.81862 0.5 6.908V15.34C0.500265 15.6977 0.642479 16.0407 0.895409 16.2936C1.14834 16.5465 1.4913 16.6887 1.849 16.689H11.293C11.6507 16.6887 11.9937 16.5465 12.2466 16.2936C12.4995 16.0407 12.6417 15.6977 12.642 15.34V6.908C12.642 6.86332 12.6331 6.81909 12.6159 6.77787C12.5986 6.73665 12.5734 6.69928 12.5415 6.66792C12.5097 6.63656 12.472 6.61184 12.4305 6.5952C12.389 6.57856 12.3447 6.57034 12.3 6.571V6.571ZM7.576 13.616C7.5812 13.6631 7.57641 13.7108 7.56195 13.7559C7.54749 13.801 7.52367 13.8426 7.49206 13.8778C7.46045 13.9131 7.42175 13.9414 7.37849 13.9607C7.33523 13.98 7.28838 13.99 7.241 13.99H5.9C5.85262 13.99 5.80577 13.98 5.76251 13.9607C5.71925 13.9414 5.68055 13.9131 5.64894 13.8778C5.61733 13.8426 5.59351 13.801 5.57905 13.7559C5.56458 13.7108 5.5598 13.6631 5.565 13.616L5.778 11.703C5.60651 11.5789 5.467 11.4158 5.37102 11.2271C5.27503 11.0385 5.22533 10.8297 5.226 10.618C5.226 10.26 5.36823 9.91658 5.62141 9.66341C5.87458 9.41023 6.21795 9.268 6.576 9.268C6.93404 9.268 7.27742 9.41023 7.53059 9.66341C7.78377 9.91658 7.926 10.26 7.926 10.618C7.92668 10.8297 7.87697 11.0385 7.78098 11.2271C7.685 11.4158 7.54549 11.5789 7.374 11.703L7.576 13.616ZM9.264 6.571H3.864V5.222C3.864 4.50592 4.14846 3.81916 4.65481 3.31281C5.16116 2.80646 5.84792 2.522 6.564 2.522C7.28009 2.522 7.96684 2.80646 8.47319 3.31281C8.97954 3.81916 9.264 4.50592 9.264 5.222V6.571Z" stroke="black"/>
</svg>
