<svg width="16" height="16" viewBox="0 0 16 16" fill="none" xmlns="http://www.w3.org/2000/svg">
<path d="M5.50003 7C6.19226 7 6.86895 7.20527 7.44452 7.58986C8.0201 7.97444 8.4687 8.52107 8.73361 9.16061C8.99851 9.80015 9.06783 10.5039 8.93278 11.1828C8.79773 11.8617 8.46439 12.4854 7.9749 12.9749C7.48542 13.4644 6.86178 13.7977 6.18285 13.9327C5.50391 14.0678 4.80018 13.9985 4.16064 13.7336C3.5211 13.4687 2.97447 13.0201 2.58989 12.4445C2.2053 11.8689 2.00003 11.1922 2.00003 10.5C2.00003 9.57174 2.36878 8.6815 3.02516 8.02513C3.68153 7.36875 4.57177 7 5.50003 7ZM5.50003 5C4.27057 5.00013 3.07661 5.4122 2.10878 6.1704C1.14095 6.9286 0.455066 7.98922 0.160646 9.18291C-0.133775 10.3766 -0.0197545 11.6345 0.484501 12.7558C0.988756 13.8771 1.85417 14.7971 2.94255 15.3689C4.03094 15.9407 5.27954 16.1314 6.48898 15.9105C7.69842 15.6895 8.79897 15.0697 9.61489 14.15C10.4308 13.2303 10.9151 12.0638 10.9903 10.8366C11.0656 9.60948 10.7275 8.3925 10.03 7.38L14 3.42V6H16V0H10V2H12.58L8.61003 5.97C7.69687 5.33639 6.61147 4.99786 5.50003 5Z" fill="#303841"/>
</svg>
