<svg width="9" height="14" viewBox="0 0 9 14" fill="none" xmlns="http://www.w3.org/2000/svg">
<path d="M1.90993 0.200022C2.08844 0.199911 2.26521 0.235208 2.42999 0.303867C2.59478 0.372527 2.74431 0.473187 2.86993 0.600021L8.01693 5.80002C8.1376 5.91876 8.23343 6.06033 8.29885 6.21648C8.36426 6.37262 8.39795 6.54023 8.39795 6.70952C8.39795 6.87882 8.36426 7.04642 8.29885 7.20257C8.23343 7.35871 8.1376 7.50028 8.01693 7.61902L2.68293 12.818C2.51457 12.9806 2.30716 13.0972 2.0807 13.1564C1.85423 13.2156 1.61633 13.2155 1.38993 13.156C1.16494 13.0989 0.958964 12.9835 0.792726 12.8214C0.626487 12.6594 0.505843 12.4565 0.442927 12.233C0.382458 12.0112 0.382764 11.7772 0.443814 11.5555C0.504864 11.3338 0.62441 11.1326 0.789927 10.973L5.18993 6.70002L0.949927 2.41202C0.827272 2.29307 0.729754 2.1507 0.66316 1.99335C0.596566 1.836 0.562252 1.66688 0.562252 1.49602C0.562252 1.32516 0.596566 1.15604 0.66316 0.998692C0.729754 0.841343 0.827272 0.698972 0.949927 0.580022C1.20754 0.332441 1.55268 0.196901 1.90993 0.203022V0.200022Z" fill="#191919"/>
</svg>
