<svg width="25" height="25" viewBox="0 0 25 25" fill="none" xmlns="http://www.w3.org/2000/svg">
<g id="Diet" clip-path="url(#clip0_497_60)">
<g id="Diet_2">
<path id="Path 857" d="M15.463 11.2629C16.1877 11.5077 16.9664 11.5442 17.7108 11.3685C18.4552 11.1928 19.1353 10.8119 19.674 10.2689L23.952 5.99093C24.0557 5.87942 24.112 5.73208 24.1092 5.57989C24.1064 5.42769 24.0447 5.28251 23.9371 5.17487C23.8295 5.06724 23.6843 5.00554 23.5321 5.00275C23.3799 4.99997 23.2325 5.05631 23.121 5.15993L19.38 8.90093L17.717 7.23792L21.458 3.49692C21.5617 3.38542 21.618 3.23808 21.6152 3.08588C21.6124 2.93369 21.5507 2.78851 21.4431 2.68087C21.3355 2.57323 21.1903 2.51154 21.0381 2.50875C20.8859 2.50596 20.7385 2.56231 20.627 2.66593L16.886 6.40693L15.223 4.74393L18.964 1.00292C19.0677 0.891417 19.124 0.744074 19.1212 0.59188C19.1184 0.439686 19.0567 0.294502 18.9491 0.186866C18.8415 0.0792307 18.6963 0.0175343 18.5441 0.0147471C18.3919 0.01196 18.2445 0.0683055 18.133 0.171928L13.855 4.44993C13.3126 4.98896 12.932 5.66913 12.7563 6.41338C12.5806 7.15764 12.6169 7.93623 12.861 8.66093L12.885 8.72993L12.099 9.46793L10.52 7.98792L10.543 7.91892C10.7874 7.19409 10.8238 6.4153 10.6481 5.67084C10.4724 4.92639 10.0917 4.24605 9.54904 3.70693L7.76503 1.92294C6.99325 1.15115 5.94651 0.717567 4.85504 0.717567C3.76358 0.717567 2.71682 1.15115 1.94504 1.92294C1.17326 2.69472 0.739673 3.74146 0.739673 4.83292C0.739673 5.92439 1.17326 6.97115 1.94504 7.74293L3.72904 9.52692C4.26796 10.0698 4.94831 10.4508 5.69284 10.6265C6.43737 10.8022 7.21625 10.7656 7.94104 10.5209L8.01004 10.4979L9.41004 11.9889L0.722034 20.1499C0.491469 20.3672 0.308263 20.6297 0.183902 20.921C0.059541 21.2124 -0.00328199 21.5263 -0.000653204 21.843C0.00197559 22.1598 0.0700121 22.4726 0.199191 22.7619C0.32837 23.0511 0.515895 23.3106 0.750033 23.5239C1.16374 23.8977 1.70251 24.1029 2.26004 24.0989C2.59323 24.098 2.92267 24.0288 3.22811 23.8957C3.53354 23.7626 3.80851 23.5683 4.03604 23.3249L12.048 14.7959L19.431 22.6549C19.6461 22.8835 19.9056 23.0656 20.1937 23.1901C20.4817 23.3147 20.7922 23.3789 21.106 23.3789H21.124C21.441 23.3758 21.754 23.3074 22.0433 23.178C22.3327 23.0487 22.5923 22.8611 22.806 22.6269C23.208 22.1614 23.4122 21.5572 23.3748 20.9432C23.3374 20.3293 23.0615 19.7543 22.606 19.3409L14.728 11.9409L15.389 11.2409L15.463 11.2629ZM3.18303 22.5219C2.97932 22.7504 2.69559 22.8918 2.39052 22.917C2.08545 22.9421 1.78239 22.849 1.54404 22.6569C1.42947 22.5528 1.33768 22.4262 1.27443 22.2849C1.21119 22.1436 1.17785 21.9908 1.17653 21.836C1.17522 21.6812 1.20595 21.5278 1.26679 21.3855C1.32762 21.2432 1.41725 21.115 1.53003 21.0089L10.218 12.8469L11.245 13.9399L3.18303 22.5219ZM21.938 21.8369C21.8343 21.952 21.7078 22.0442 21.5664 22.1076C21.425 22.1709 21.272 22.2041 21.117 22.2049C20.9626 22.2046 20.8099 22.173 20.6679 22.1122C20.526 22.0514 20.3978 21.9625 20.291 21.8509L8.61003 9.41892C8.53306 9.337 8.43423 9.27887 8.32523 9.2514C8.21623 9.22392 8.10165 9.22827 7.99504 9.26392L7.56903 9.40592C7.05133 9.5806 6.49502 9.60657 5.96329 9.48089C5.43156 9.3552 4.94575 9.0829 4.56104 8.69492L2.77704 6.91093C2.22579 6.35967 1.91609 5.61202 1.91609 4.83244C1.91609 4.05285 2.22579 3.30518 2.77704 2.75393C3.32829 2.20268 4.07594 1.89298 4.85553 1.89298C5.63512 1.89298 6.38279 2.20268 6.93404 2.75393L8.71804 4.53793C9.10583 4.92296 9.37792 5.40901 9.50342 5.94088C9.62892 6.47275 9.60281 7.02915 9.42804 7.54693L9.28604 7.97292C9.2506 8.07947 9.24645 8.19394 9.2741 8.30277C9.30175 8.4116 9.36003 8.51022 9.44203 8.58692L13.498 12.3969L21.798 20.1969C22.0263 20.4006 22.1675 20.6842 22.1925 20.9891C22.2174 21.294 22.1242 21.5969 21.932 21.8349L21.938 21.8369ZM14.794 10.1599L13.876 11.1379L12.956 10.2739L13.962 9.32893C14.0438 9.25208 14.102 9.15346 14.1296 9.04468C14.1572 8.93591 14.1532 8.8215 14.118 8.71493L13.976 8.28792C13.8243 7.83742 13.7847 7.35671 13.8607 6.88746C13.9367 6.4182 14.1259 5.97456 14.412 5.59493L18.528 9.71093C18.1489 9.99758 17.7054 10.1872 17.2363 10.2634C16.7671 10.3396 16.2864 10.2999 15.836 10.1479L15.41 10.0059C15.3034 9.97015 15.1888 9.96574 15.0798 9.99322C14.9708 10.0207 14.8719 10.0789 14.795 10.1609L14.794 10.1599Z" fill="#3A4750"/>
</g>
</g>
<defs>
<clipPath id="clip0_497_60">
<rect width="24.123" height="24.101" fill="white"/>
</clipPath>
</defs>
</svg>
