<svg width="25" height="25" viewBox="0 0 25 25" fill="none" xmlns="http://www.w3.org/2000/svg">
<path id="icon_profile" opacity="0.51" d="M7.698 13.0081C6.85831 12.2544 6.21131 11.3105 5.81116 10.2555C5.41101 9.20053 5.26937 8.06501 5.39801 6.94404C5.54337 5.20451 6.34489 3.5854 7.64002 2.41504C8.99753 1.14592 10.7979 0.458576 12.6558 0.500066C14.5137 0.541556 16.2815 1.3086 17.581 2.63706C18.2638 3.32062 18.8014 4.13504 19.1617 5.0315C19.5219 5.92796 19.6974 6.88798 19.6775 7.85392C19.6576 8.81986 19.4428 9.77181 19.0459 10.6527C18.649 11.5336 18.0783 12.3252 17.368 12.98C17.968 13.337 18.601 13.6611 19.179 14.0591C21.4011 15.5797 23.0288 17.8222 23.786 20.4061C24.1648 21.5423 24.2771 22.7505 24.114 23.937C24.0597 24.1017 23.9546 24.245 23.814 24.3464C23.6734 24.4479 23.5044 24.5024 23.331 24.5021C23.1627 24.5092 22.9973 24.4563 22.8643 24.3528C22.7314 24.2493 22.6394 24.102 22.605 23.937C22.541 23.477 22.539 23.0081 22.485 22.5461C22.2596 20.5379 21.4375 18.6435 20.125 17.107C19.0101 15.7658 17.5513 14.753 15.905 14.177C15.7576 14.1306 15.5986 14.1377 15.456 14.1971C14.4968 14.6558 13.4468 14.8932 12.3836 14.8918C11.3204 14.8904 10.271 14.6503 9.31299 14.1891C9.18021 14.1334 9.03182 14.1274 8.89496 14.1721C7.43629 14.7064 6.12786 15.5842 5.08032 16.7313C4.03278 17.8784 3.27703 19.261 2.87701 20.762C2.60009 21.7168 2.45505 22.705 2.44598 23.6991C2.45421 23.8 2.4416 23.9015 2.409 23.9974C2.37639 24.0933 2.32447 24.1815 2.25641 24.2564C2.18835 24.3314 2.10564 24.3917 2.01337 24.4334C1.9211 24.4751 1.82123 24.4975 1.71997 24.499C1.61794 24.496 1.51762 24.472 1.42523 24.4285C1.33285 24.3851 1.25035 24.3232 1.18286 24.2466C1.11537 24.17 1.06436 24.0804 1.0329 23.9833C1.00144 23.8862 0.990239 23.7837 1 23.682C1.01464 20.627 2.17309 17.6883 4.24701 15.445C5.06718 14.5836 6.0253 13.8651 7.08197 13.319C7.27797 13.222 7.477 13.1241 7.698 13.0081ZM6.88501 7.67405C6.88314 9.18215 7.47901 10.6296 8.54211 11.6992C9.60522 12.7689 11.0489 13.3736 12.557 13.381C14.0549 13.373 15.4894 12.7756 16.5503 11.7181C17.6112 10.6605 18.2132 9.22792 18.226 7.73005C18.2258 6.22205 17.629 4.77537 16.566 3.70578C15.5029 2.6362 14.06 2.03057 12.552 2.02106C11.054 2.0315 9.6201 2.63052 8.55988 3.68888C7.49965 4.74723 6.8981 6.18004 6.88501 7.67804V7.67405Z" fill="#3A4750" stroke="#3A4750" stroke-width="0.1"/>
</svg>
