<svg width="13" height="11" viewBox="0 0 13 11" fill="none" xmlns="http://www.w3.org/2000/svg">
<g id="tick">
<g id="tick_2">
<path id="Path-94" d="M11.032 1.29399C11.1014 1.20627 11.1878 1.13344 11.286 1.07983C11.3842 1.02623 11.4922 0.992956 11.6035 0.981999C11.7149 0.971043 11.8273 0.982627 11.9341 1.01606C12.0408 1.04949 12.1398 1.10409 12.225 1.1766C12.3102 1.2491 12.3799 1.33803 12.43 1.43807C12.4801 1.53811 12.5095 1.64721 12.5165 1.75887C12.5235 1.87053 12.5079 1.98245 12.4707 2.08796C12.4335 2.19348 12.3755 2.29041 12.3 2.37299L5.21798 10.706C5.14612 10.7905 5.05811 10.8598 4.9591 10.9098C4.8601 10.9599 4.7521 10.9896 4.64144 10.9974C4.53078 11.0051 4.41969 10.9906 4.31469 10.9549C4.20969 10.9191 4.11289 10.8627 4.02998 10.789L0.279982 7.45599C0.114752 7.3092 0.0146046 7.10277 0.0015707 6.88214C-0.0114632 6.6615 0.0636845 6.44472 0.210482 6.27949C0.357279 6.11426 0.563702 6.01412 0.784338 6.00108C1.00497 5.98805 1.22175 6.0632 1.38698 6.20999L4.49998 8.97799L11.032 1.29399Z" fill="black"/>
</g>
</g>
</svg>
