<svg width="19" height="9" viewBox="0 0 19 9" fill="none" xmlns="http://www.w3.org/2000/svg">
<g id="noun-dumble-1164164">
<path id="Path 3575" d="M5.532 8.43307H4.41399C4.15655 8.43281 3.90973 8.33042 3.72769 8.14838C3.54565 7.96634 3.44327 7.71951 3.443 7.46207C3.443 7.40743 3.42129 7.35504 3.38266 7.31641C3.34403 7.27777 3.29163 7.25607 3.237 7.25607H2.501C2.24356 7.25581 1.99673 7.15342 1.81469 6.97137C1.63265 6.78933 1.53026 6.54251 1.53 6.28506C1.53 6.23043 1.50829 6.17804 1.46966 6.1394C1.43103 6.10077 1.37863 6.07907 1.324 6.07907H0.971001C0.713557 6.07881 0.466731 5.97643 0.284691 5.79439C0.10265 5.61235 0.000264724 5.36552 0 5.10808V3.34308C0.000264724 3.08563 0.10265 2.83881 0.284691 2.65677C0.466731 2.47473 0.713557 2.37233 0.971001 2.37207H1.324C1.37863 2.37207 1.43103 2.35037 1.46966 2.31174C1.50829 2.2731 1.53 2.22071 1.53 2.16608C1.53026 1.90863 1.63265 1.66181 1.81469 1.47977C1.99673 1.29773 2.24356 1.19533 2.501 1.19507H3.237C3.29163 1.19507 3.34403 1.17337 3.38266 1.13474C3.42129 1.0961 3.443 1.04371 3.443 0.989075C3.44327 0.731631 3.54565 0.484805 3.72769 0.302765C3.90973 0.120724 4.15655 0.0183311 4.41399 0.0180664H5.532C5.78944 0.0183311 6.03627 0.120724 6.21831 0.302765C6.40035 0.484805 6.50273 0.731631 6.503 0.989075V7.46207C6.50273 7.71951 6.40035 7.96634 6.21831 8.14838C6.03627 8.33042 5.78944 8.43281 5.532 8.43307ZM0.971001 3.13307C0.916366 3.13307 0.863965 3.15477 0.825333 3.19341C0.7867 3.23204 0.764999 3.28443 0.764999 3.33907V5.10406C0.765262 5.15862 0.787047 5.21088 0.825623 5.24945C0.864198 5.28803 0.916447 5.30981 0.971001 5.31007H1.324C1.58144 5.31034 1.82827 5.41272 2.01031 5.59476C2.19235 5.7768 2.29473 6.02362 2.295 6.28107C2.295 6.3357 2.3167 6.38811 2.35533 6.42674C2.39396 6.46537 2.44636 6.48708 2.501 6.48708H3.237C3.49444 6.48734 3.74127 6.58972 3.92331 6.77176C4.10535 6.9538 4.20774 7.20062 4.208 7.45807C4.208 7.5127 4.2297 7.5651 4.26833 7.60373C4.30697 7.64236 4.35936 7.66408 4.41399 7.66408H5.532C5.58663 7.66408 5.63903 7.64236 5.67766 7.60373C5.71629 7.5651 5.738 7.5127 5.738 7.45807V0.985077C5.738 0.930442 5.71629 0.878034 5.67766 0.839401C5.63903 0.800769 5.58663 0.779068 5.532 0.779068H4.41299C4.38594 0.779068 4.35916 0.784402 4.33417 0.794754C4.30917 0.805107 4.28646 0.820272 4.26733 0.839401C4.24821 0.85853 4.23303 0.881242 4.22268 0.906235C4.21233 0.931228 4.207 0.958025 4.207 0.985077C4.20674 1.24252 4.10434 1.48935 3.9223 1.67139C3.74026 1.85343 3.49344 1.95581 3.236 1.95607H2.5C2.44537 1.95607 2.39296 1.97777 2.35433 2.0164C2.3157 2.05504 2.294 2.10744 2.294 2.16208C2.29373 2.41952 2.19135 2.66633 2.00931 2.84837C1.82727 3.03041 1.58044 3.13281 1.323 3.13307H0.971001Z" fill="black"/>
<path id="Path 3576" d="M13.947 8.43307H12.829C12.5716 8.43281 12.3247 8.33042 12.1427 8.14838C11.9607 7.96634 11.8583 7.71951 11.858 7.46207V0.989075C11.8583 0.731631 11.9607 0.484805 12.1427 0.302765C12.3247 0.120724 12.5716 0.0183311 12.829 0.0180664H13.947C14.2045 0.0183311 14.4513 0.120724 14.6333 0.302765C14.8154 0.484805 14.9178 0.731631 14.918 0.989075C14.9183 1.04363 14.9401 1.09587 14.9786 1.13445C15.0172 1.17302 15.0695 1.19481 15.124 1.19507H15.859C16.1165 1.19533 16.3633 1.29773 16.5453 1.47977C16.7274 1.66181 16.8298 1.90863 16.83 2.16608C16.8303 2.22063 16.8521 2.27287 16.8907 2.31145C16.9292 2.35002 16.9815 2.37181 17.036 2.37207H17.389C17.6465 2.37233 17.8933 2.47473 18.0753 2.65677C18.2574 2.83881 18.3598 3.08563 18.36 3.34308V5.10808C18.3598 5.36552 18.2574 5.61235 18.0753 5.79439C17.8933 5.97643 17.6465 6.07881 17.389 6.07907H17.036C16.9814 6.07907 16.929 6.10077 16.8904 6.1394C16.8517 6.17804 16.83 6.23043 16.83 6.28506C16.8298 6.54251 16.7274 6.78933 16.5453 6.97137C16.3633 7.15342 16.1165 7.25581 15.859 7.25607H15.124C15.0695 7.25634 15.0172 7.27812 14.9786 7.3167C14.9401 7.35527 14.9183 7.40751 14.918 7.46207C14.9178 7.71951 14.8154 7.96634 14.6333 8.14838C14.4513 8.33042 14.2045 8.43281 13.947 8.43307ZM12.829 0.783066C12.7744 0.783066 12.722 0.804782 12.6833 0.843414C12.6447 0.882047 12.623 0.93444 12.623 0.989075V7.46207C12.623 7.5167 12.6447 7.56911 12.6833 7.60774C12.722 7.64637 12.7744 7.66808 12.829 7.66808H13.947C14.0017 7.66808 14.054 7.64637 14.0927 7.60774C14.1313 7.56911 14.153 7.5167 14.153 7.46207C14.1533 7.20462 14.2557 6.9578 14.4377 6.77576C14.6198 6.59372 14.8666 6.49134 15.124 6.49107H15.86C15.9147 6.49107 15.967 6.46937 16.0057 6.43074C16.0443 6.39211 16.066 6.3397 16.066 6.28506C16.0663 6.02762 16.1687 5.78081 16.3507 5.59877C16.5327 5.41673 16.7796 5.31434 17.037 5.31407H17.39C17.4446 5.31407 17.497 5.29237 17.5357 5.25374C17.5743 5.21511 17.596 5.16271 17.596 5.10808V3.34308C17.596 3.28844 17.5743 3.23604 17.5357 3.1974C17.497 3.15877 17.4446 3.13707 17.39 3.13707H17.037C16.7796 3.13681 16.5327 3.03443 16.3507 2.85239C16.1687 2.67035 16.0663 2.42352 16.066 2.16608C16.066 2.11144 16.0443 2.05903 16.0057 2.0204C15.967 1.98177 15.9147 1.96007 15.86 1.96007H15.125C14.8676 1.9598 14.6208 1.85742 14.4387 1.67538C14.2567 1.49334 14.1543 1.24652 14.154 0.989075C14.154 0.93444 14.1323 0.882047 14.0937 0.843414C14.0551 0.804782 14.0027 0.783066 13.948 0.783066H12.829Z" fill="black"/>
<path id="Path 3577" d="M12.54 5.75587H5.73999V2.69287H12.54V5.75587ZM6.50299 4.99088H11.775V3.45787H6.50299V4.99088Z" fill="black"/>
<path id="Path 3578" d="M3.44202 0.989258H4.20702V7.28925H3.44202V0.989258Z" fill="black"/>
<path id="Path 3579" d="M1.53003 2.16602H2.29503V6.43301H1.53003V2.16602Z" fill="black"/>
<path id="Path 3580" d="M14.153 0.989258H14.918V7.28925H14.153V0.989258Z" fill="black"/>
</g>
</svg>
